<?xml version="1.0" encoding="UTF-8"?><svg id="Layer_2" xmlns="http://www.w3.org/2000/svg" viewBox="0 0 132.92 103.27"><g id="Layer_1-2"><path d="m97.05,88.99c-1.15,3.19-2.24,6.19-3.33,9.2-.13-.04-.26-.09-.39-.13.33-1.16.61-2.35,1.01-3.49.52-1.5,1.03-3.02,1.74-4.43.7-1.38.49-2.57-.11-3.89-1.92-4.18-2.18-8.43-.51-12.78,2.56-6.66,5.14-13.32,7.58-20.02,1.27-3.47,2.27-7.04,3.39-10.56.22-.68.44-1.35.79-2.43.3.71.43,1.01.58,1.36.09-.14.21-.24.24-.36.31-1.12.57-2.25.92-3.36.53-1.72,1.12-3.43,1.68-5.14-.12-.13-.25-.26-.37-.39-1.81.56-3.63,1.13-5.67,1.76-.45-2.56,2.36-2.82,2.94-4.64-.46-.08-.93-.16-1.79-.32.75-.67,1.24-1.18,1.8-1.6,2.14-1.6,4.27-3.04,4.86-6.04,1.08-5.49,2.47-10.91,3.74-16.37.34-1.44.64-2.89,1.06-4.3.12-.41.58-.72.89-1.08.16.05.31.1.47.15,0,1.43.09,2.87-.02,4.3-.41,5.59-.9,11.17-1.31,16.76-.03.39.3.82.16,1.16-.09.99-.18,1.98-.27,2.97h2.71c-.1.13-.31.42-.68.92.76.06,1.34.24,1.87.13,3.22-.67,7.36,4.1,7.26,7.05-.03.79.73,1.88,1.44,2.35,1.67,1.11,2.2,2.51,2.15,4.43-.09,3.14-1.36,5.71-3.27,7.67.77,1.94,1.43,3.69,2.18,5.4.17.38.57.76.95.93,1.18.5,1.34,1.4,1.13,2.48-.12.62-.21,1.29-.5,1.83-1.38,2.56.41,5.07.08,7.63-.17,1.36-.43,2.47-1.3,3.6-5.24,6.83-11.88,12.16-18.53,17.48-1.77,1.41-3.78,2.54-5.73,3.7-2.79,1.65-6.7.92-9.82-1.93Zm30.57-36.08c-1.69-.15-3.6-.89-4.92-.31-3.06,1.36-6.11,1.88-9.4,1.75-.76-.03-1.76.45-2.3,1.02-2.27,2.43-2.9,5.56-3.39,8.72-.46,2.97-.81,5.96-1.37,8.91-.15.82-.86,1.53-1.32,2.3-.16-.07-.33-.14-.49-.21,0,1.85.02,3.7,0,5.54-.02,1.16.52,1.51,1.64,1.58,2.36.15,4.12-1.12,5.66-2.51,5.56-5.04,11.02-10.19,16.43-15.4.86-.83,1.36-2.11,1.78-3.28.17-.48-.15-1.41-.56-1.77-1.3-1.14-1.96-2.43-1.76-4.17.07-.62.01-1.25.01-2.17Zm-16.27-1.93c1.57.35,2.71.1,3.88-.79,4.38-3.35,7.94-7.39,10.82-12.07.98-1.6.63-3.75-.93-4.86-1.55-1.1-3.14-2.14-4.77-3.12-1.99-1.2-4.06-.14-4.56,2.12-1.2,5.45-2.51,10.89-3.78,16.32-.18.76-.42,1.51-.67,2.39Zm-7.48,22.4c-.62.89-1.51,1.88-2.07,3.03-.75,1.56-1.51,3.2-1.75,4.88-.12.8.91,1.8,1.5,2.65.82,1.19,1.74,2.29,3.34,2.44,4,.39,7.65-.43,10.97-2.8,6.21-4.43,9.83-10.66,12.54-17.56.11-.29.13-.61.18-.83-3.02,2.89-5.95,5.87-9.08,8.62-3.17,2.79-6.49,5.43-9.88,7.94-.93.69-2.35.87-3.57.96-1.72.13-2.14-.37-2.17-2.13-.03-2.47,0-4.93,0-7.2Zm3.25-28.95c-.07,0-.14,0-.21,0-1.34,3.61-2.66,7.22-4.03,10.81-1.93,5.09-3.84,10.19-5.88,15.24-.78,1.94-.92,3.58.38,5.42.91,1.29,1.32,2.94,1.96,4.43.16,0,.33.02.49.03.7-2.8,1.5-5.58,2.07-8.4,1.62-7.98,3.16-15.98,4.71-23.97.23-1.18.33-2.38.5-3.57Zm-7.48,37.65c-.77,2.26-1.38,3.89-1.84,5.56-.12.45.09,1.15.39,1.54,1.76,2.24,6.05,2.75,8.69,1.09,1.56-.98,3.13-1.97,4.68-2.98.53-.34,1.01-.75,1.51-1.13-5.22,1.21-10.24,2.46-13.42-4.09Zm23.75-34.35c4.15.74,6.15-.43,7.22-3.9,1.45-4.7.87-6.65-2.62-8.26-1.4,4.04-1.32,8.61-4.61,12.16Zm-9.98-24.02c2.16-.75,3.27-1.44,3.38-3.51.29-5.64.87-11.27,1.32-16.9.05-.67,0-1.34,0-2.01-.2-.01-.41-.02-.61-.04-1.34,7.34-2.68,14.69-4.09,22.45Zm10.11,53.73c2.28-2.55,4.35-5.11,6.68-7.41,2.14-2.12,1.6-4.62,1.52-7.1-.01-.4-.37-.78-.63-1.31-2.56,5.35-5.02,10.49-7.57,15.81Zm-26.06,10.17c.56-2.45,1.6-4.57,1.34-6.5-.31-2.25-1.25-4.6-2.92-6.55-1.66,3.37-1.02,9.2,1.58,13.05Zm18.11-36.29c.83-.3,1.64-.5,2.36-.89,1.02-.55,1.88-1.51,2.95-1.81,1.78-.5,2.77-1.71,3.45-3.19.92-2.01,1.62-4.12,2.55-6.53-3.93,4.32-7.52,8.25-11.31,12.42Zm-6.58.44c.22.12.45.24.67.36.42-.6,1.01-1.14,1.23-1.8.98-3.07,1.96-6.16,2.75-9.28.63-2.48.98-5.02,1.45-7.54-.2-.05-.4-.09-.59-.14-1.83,6.14-3.67,12.27-5.5,18.41Zm6.15-21.1c-1.28.61-3.01.26-3.24,1.97-.37,2.81-.47,5.66-.71,8.76,1.34-3.63,2.58-7.02,3.95-10.73Zm-12.44,38.95c.14.04.29.07.43.11,2.06-5.33,2.37-11,3.34-16.54-.15-.03-.3-.06-.45-.09-1.11,5.51-2.21,11.01-3.32,16.52Zm18.77-42.51c1.97,2.14,4.02,4.36,6.02,6.53.44-3.14-3.3-7.1-6.02-6.53Zm-16.42,5.94c.08.16.15.32.23.48,1.29-.43,2.55-.99,3.87-1.27,1.6-.33,1.86-1.26,1.63-2.69-2.89-.22-3.88,2.29-5.73,3.47Zm25.06,25.69c.29-4.51.36-5.35-1.7-5.18-.54,2.8-.29,4.24,1.7,5.18Zm-22.99,6.91c-2.66,2.36-1.99,5.32-2.07,8.15.17.03.35.06.52.1.52-2.75,1.03-5.49,1.55-8.24Zm14.76-13.51c-.05-.21-.09-.42-.14-.63-.98.3-1.96.62-2.95.91-.39.11-.94.39-1.17.23-1.57-1.13-2.34.35-3.4.86,2.76.55,5.31.09,7.65-1.37Zm2.47-.31c1.21.24,2.36.46,3.87.76-.19-1.26-.34-2.26-.52-3.48-1.26.92-2.18,1.6-3.1,2.28-.07.05-.1.17-.24.44Zm1.79-2.53c-1.44-.32-3.79.42-5.19,1.64,2.41.73,3.54.37,5.19-1.64Zm-6.13-20.12c1.97,1.24,3.71,2.34,5.64,3.55-1.32-2.91-3.59-4.39-5.64-3.55Zm10.93,25.53v5.52c1.76-2.26,1.74-4.97,0-5.52Zm-17.98-27.28c.95-.23,1.72-.37,2.45-.61.3-.1.76-.46.74-.65-.04-.35-.32-.76-.62-.96-1.29-.85-2.22-.12-2.57,2.22Zm2.85,1.35c-1.26.16-2.29.28-3.36.41-.11.62-.19,1.14-.28,1.65,1.23-.72,3.12.02,3.65-2.07Zm-7.96,28.3c2.02-1.63,2.37-3.17,1.09-4.33-.34,1.36-.68,2.67-1.09,4.33Zm21.3-6.88c-.62,2.36-.6,2.4,1.02,2.81-.38-1.04-.7-1.93-1.02-2.81Zm-18,3.2c.68-.42,1.36-.85,2.04-1.28-1.16-.46-2.22-.77-2.04,1.28Z"/><path d="m51.14,8.04c-2.14-.57-2.97.87-3.87,2.14-3.84,5.44-7.71,10.86-11.47,16.36-2.24,3.27-4.29,6.67-6.43,10-.28.44-.59.86-.72,1.5.35-.25.75-.44,1.04-.75,2.68-2.85,5.26-5.81,8.04-8.56,3.3-3.27,6.74-6.41,10.21-9.51.71-.63,1.79-.83,2.67-1.29.68-.35,1.36-.75,1.98-1.21.97-.72,1.89-1.5,2.77-2.45-.26.42-.43.93-.78,1.25-1.67,1.52-3.37,3-5.08,4.46-3.3,2.82-6.8,5.44-9.87,8.49-4.2,4.18-8.18,8.58-12.03,13.08-2.26,2.64-4.07,5.67-6.06,8.53-.22.32-.32.73-.48,1.09,1.27,0,2.44.11,3.58-.03,1.51-.19,2.88-.59,3.81-2.09,3.21-5.17,6.48-10.3,9.84-15.38,1.86-2.82,3.88-5.55,5.97-8.21.64-.81,1.77-1.24,2.83-1.61-3.12,1.65-4.7,4.72-6.53,7.38-4.26,6.18-8.18,12.6-12.22,18.94-.2.31-.31.77-.25,1.13.83,5.25,1.78,10.48,2.54,15.74.91,6.27,1.68,12.56,2.53,18.84.05.35.23.68.48,1.39.13-.87.21-1.39.29-1.91.08,0,.17,0,.25,0v3.77c-1.94-2.84-2.27-6.21-3.2-9.42-.02.34-.1.68-.06,1.01.43,4.2.83,8.41,1.38,12.6.09.7.76,1.55,1.39,1.86.39.19,1.38-.36,1.82-.84.82-.89,1.42-1.97,2.13-2.96.37-.52.79-1,1.18-1.5.13.11.25.21.38.32-1.19,1.64-2.29,3.36-3.62,4.88-.45.51-1.78.91-2.21.62-.77-.52-1.5-1.55-1.63-2.45-.5-3.45-.74-6.93-1.09-10.4-.06-.62-.21-1.23-.66-1.88-.08.44-.26.9-.24,1.33.28,4.54.42,9.09.97,13.59.25,2.02,1.12,4.05,2.12,5.85.78,1.4,1.62,1.17,2.44-.27.32-.57.63-1.15.94-1.73.16.09.31.17.47.26-.57.95-1.02,2-1.74,2.81-.71.79-1.56.36-2.22-.3-1.79-1.79-2.41-4.1-2.61-6.48-.34-4.05-.49-8.12-.76-12.19-.06-.95-.08-1.84-1.14-2.55-.57-.38-.63-1.71-.71-2.63-.37-3.89-.49-7.81-1.06-11.67-.27-1.81-1.15-3.62-2.09-5.23-1.16-2-2.49-2.21-4.6-1.2-.44.21-.89.39-1.44.37,2.24-2.45,4.48-4.89,6.72-7.34-.07-.14-.14-.28-.21-.41-1.2.26-2.43.43-3.61.79-3.26,1-6.41,2.15-8.25,5.4-.59,1.04-1.58,1.85-2.38,2.77-.19-.15-.37-.3-.56-.44,1.22-1.64,2.45-3.28,3.76-5.04-.29-.14-.58-.28-1.01-.48,1.48-3.2,3.71-5.85,6.08-8.39,2.31-2.48,5-4.65,7.03-7.33,3.12-4.13,6.04-8.45,8.63-12.92,3.97-6.85,8.52-13.27,13.62-19.29.55-.65,1.76-.74,2.66-1.1.12.29.24.57.36.86Zm-30.45,51.3c2.83.38,3.47.68,4.68,2.96.75,1.42,1.43,3.01,1.63,4.58.5,3.92.69,7.88,1.04,11.81.07.77.28,1.52.43,2.28.94-2.32-1.8-25.83-2.91-27.16-1.57,1.79-3.13,3.55-4.87,5.52Zm3.12-15.61c-3.62,3.71-7.66,7.12-9.81,12.04,4.1-3.32,6.27-8.24,9.81-12.04Zm4.81,26.22c.14-.02.27-.03.41-.05.08-4.76.08-9.5-1.92-14.02.5,4.69,1.01,9.37,1.51,14.06Zm2.42,8.52c-.4-4.65-.8-9.3-1.2-13.96.01,4.69-.97,9.46,1.2,13.96Zm-13.08-25.9c.13.09.26.18.39.27,2.63-1.52,3.27-4.46,4.95-6.66-.13-.09-.26-.19-.39-.28l-4.94,6.68Zm10.55,3.9c.11,0,.21,0,.32,0-.34-1.58-.68-3.16-1.01-4.74-.27,0-.53,0-.8,0-.08.65-.41,1.39-.2,1.92.4,1,1.11,1.89,1.69,2.82Zm-11.69-1.47c1.88-.69,3.75-1.38,5.68-2.09-2.48-.86-4.19.32-5.68,2.09Z"/><path d="m68.09,38.06c.2-.35.47-.67.6-1.05,1.32-3.85,2.55-7.74,3.96-11.56.73-1.96,1.76-3.81,2.72-5.67.17-.33.76-.69,1.09-.64.38.05.95.53.98.86.12,1.26.05,2.54-.1,3.82-.78-1.29.3-3-.96-4.23-2.36,2.56-8.48,19.39-8.45,23.17,1.05-1.52,2.04-2.97,3.04-4.42.21.12.41.23.62.35-3.19,9.62-6.39,19.24-9.53,28.68,2.4-1.05,4.66-2.48,7.11-2.99,3.45-.72,6.54-2.01,9.43-3.91.13-.09.29-.13.44-.19,3.21-1.34,3.74-1.07,4.46,2.28.19.88.34,1.76.57,2.91,4.22-.86,8.42-1.72,12.62-2.58-3.86,2.24-8.53,1.69-12.58,3.33.1,2.25.77,3.61,2.09,3.75,1.04.11,2.38.66,3.13-.93-.13.42-.13,1.09-.4,1.21-1.48.69-2.95.53-4.78-.66.67,1.92,1.19,3.41,1.78,5.1-.55.06-1.04.16-1.53.16-1.43.02-2.86,0-4.29,0-3.11,0-5.52-2.58-5.18-5.72.07-.61.71-1.4,1.28-1.66,1.46-.65,3.04-1.05,4.85-1.64-.85-.49-1.49-1.12-2.19-1.21-2.86-.36-5.81-1.01-8.36,1.11-2.85,2.36-5.66,4.78-8.56,7.08-1.31,1.04-2.75,1.96-4.23,2.75-.56.3-1.53.32-2.06.01-.31-.18-.28-1.3-.09-1.9,1.33-4.29,2.72-8.56,4.11-12.84,1.88-5.78,3.79-11.56,5.66-17.35,1.22-3.78,2.38-7.58,3.72-11.37-.33,1.99-.65,3.97-.98,5.96-1.47,3.96-2.93,7.91-4.4,11.87.17.06.33.11.5.17,2.05-3.77,3.27-7.82,3.87-12.07Zm16.92,36.2c-.42-1.59-.92-2.98-1.14-4.42-.34-2.2-1.75-3.36-3.87-2.96-.36.07-.77,0-1.1.13-1.14.5-2.56.79-3.28,1.66-.97,1.16,1.24,5.42,2.8,5.54,2.14.17,4.3.04,6.59.04Zm-28.1-1.97c2.12-1.34,3.43-2.63,3.67-4.8.14-1.25.54-2.47.85-3.7,1.03-4.07,2.08-8.15,3.12-12.22-2.56,6.76-5.96,13.22-7.64,20.72Zm13.65-32.2c-3.21,3.99-4.56,8.41-5.72,12.92-1.14,4.44-2.34,8.86-3.51,13.29l.47.13c2.89-8.68,5.77-17.36,8.76-26.34Zm4.17,23.11c.04.19.08.38.11.57,2.65-.29,4.98.36,7.14,1.85.83.57,1.44.02,1.33-.97-.13-1.2-.27-2.42-.65-3.55-.14-.42-1.13-.98-1.48-.84-2.19.88-4.31,1.94-6.46,2.94Zm-3.74,1.36c-5.14.73-10.74,3.86-10.7,8.81,3.51-2.89,7-5.77,10.7-8.81Zm-14.94,10.71c2.55-.09,3.37-1.17,3.11-3.89-.56.43-1.05,1.11-1.63,1.21-1.7.27-1.46,1.42-1.48,2.68Z"/><path d="m6.26,55.39c-.74,6.06-1.49,12.12-2.23,18.18-.22,0-.44-.01-.66-.02-.05-.35-.15-.71-.15-1.06,0-11.54.24-23.09-.05-34.62-.21-8.69-.92-17.4-3.16-25.95.2.37.49.71.59,1.11,1.77,6.52,2.64,13.2,2.85,19.9.35,11,.26,22.01.36,33.02,0,.82,0,1.63.22,2.45,1.27-11.71,3.19-23.37,1.59-35.33.68-.03,1.1-.05,1.59-.07-1.38,2.09-.75,4.15-.26,6.2.97-6.79,1.94-13.58,2.9-20.36.25.03.49.05.74.08.35,21.84-1.02,43.65-2.08,65.55,1.52-.86,1.43-.86,1.57-2.38.26-2.75.64-5.48.99-8.44.5.32.65.38.64.42-.5,4.83-.97,9.66-1.55,14.48-.2,1.67-.67,3.31-1.08,4.95-.07.28-.42.49-.65.73-.15-.03-.3-.07-.46-.1,0-1.76,0-3.52,0-5.28,0-.93.15-1.8-1.17-2.19-.47-.14-.9-1.31-.9-2.02-.02-4.66.04-9.31.15-13.97.12-5.13.33-10.25.49-15.37-.1.02-.19.05-.29.07Zm3.82-31.98c-.16-.01-.31-.03-.47-.04-.29,2.61-.46,5.24-.9,7.82-1.22,7.16-1.79,14.36-1.76,21.63.02,5.66-.16,11.31-.27,16.97-.09,4.76-.2,9.51-.26,14.27-.01.9-.12,1.94,1.42,2.4,1.02-21.09,2.32-42.04,2.24-63.05Zm-1.52,68.5c.19.04.39.07.58.11.3-2.44.61-4.89.91-7.33-2.18,2.18-1.28,4.78-1.49,7.22Z"/></g></svg>