<?xml version="1.0" encoding="UTF-8"?><svg id="Layer_2" xmlns="http://www.w3.org/2000/svg" viewBox="0 0 325.55 344.6"><g id="Layer_1-2"><path d="m187.68,314.19c-2.29,1.29-4.55,2.65-6.88,3.86-4.78,2.47-9.79,4.16-15.24,4.25-.64.01-1.3.14-1.92.31-4.66,1.32-8.35-.94-11.82-3.44-1.94-1.4-1.87-3.79-1.25-5.93.55-1.91,1.39-3.74,2.34-6.2-1.92,1.17-3.51,1.97-4.91,3.01-2.94,2.17-5.83,3.23-9.58,1.67-1.43-.6-3.6.23-5.32.76-2.32.71-4.47,2.22-6.82,2.57-5.7.86-10.49-3.42-10.74-9.18-.07-1.61-.01-3.23-.01-5.27-.84.57-1.4.95-1.96,1.31-3.32,2.15-6.55,4.47-10.02,6.35-1.55.85-3.57,1.05-5.4,1.12-1.85.07-2.94-1.24-3.05-3.11-.06-1.03.11-2.08,0-3.11-.1-.98-.47-1.94-.6-2.92-.22-1.69-.75-3.46-.44-5.06,1.05-5.42,4.19-9.79,8.1-13.47,2.52-2.38,5.6-4.17,8.45-6.2.42-.3.91-.57,1.4-.66,4.7-.87,9.38-2.04,14.12-2.45,4.62-.4,6.49,3.11,4.24,7.28-.55,1.01-1.24,1.95-2.19,3.45,2.58-.73,4.73-1.14,6.71-1.95,3.2-1.31,6.31-2.8,9.9-2.45.32.03.67-.03.97.06,2.49.74,4.86,1.78,7.59.37,1.25-.65,2.38.41,2.28,2-.08,1.34.09,2.39,1.52,2.97.36.15.78.86.71,1.22-.61,3.01-.79,6.08-3.1,8.6-3.94,4.31-7.55,8.91-11.38,13.32-1.08,1.24-2.44,2.24-3.53,3.58,5.07.37,8.99-1.99,12.33-5.44,3.37-3.48,5.39-7.55,4.32-12.66,1.46,2.33.94,4.8.12,7-.82,2.19-2.33,4.13-3.37,6.46.82-.72,1.71-1.37,2.45-2.16,4.49-4.74,9.32-8.95,15.17-12.04,5.37-2.83,10.66-3.29,16.33-1.32,2.18.76,4.45,1.28,6.71,1.8,3.52.81,4.45,2.56,2.7,5.75-.83,1.51-1.85,3.09-3.17,4.14-5.68,4.53-11.46,8.92-17.29,13.26-2.68,1.99-5.54,3.73-8.22,6.03,2.64-.71,5.44-1.06,7.87-2.21,4.49-2.13,8.78-4.72,13.12-7.17.59-.34,1.04-.97,1.5-1.51,2.65-3.12,5.14-6.38,7.94-9.34,3.88-4.09,8.03-7.91,11.97-11.94,1.4-1.43,2.94-2.96,3.66-4.74,1.55-3.82,4.52-6.49,7-9.53,4.06-4.98,8.36-9.75,12.57-14.6.38-.43.87-.76,1.31-1.14.13.13.27.25.41.38-1.54,2.06-3.08,4.11-4.61,6.17,3.18-2.45,5.45-5.92,9.15-7.65.2.17.4.34.61.51-1.27,1.81-2.41,3.71-3.82,5.4-4.57,5.48-9.25,10.89-13.88,16.32-.58.68-1.15,1.37-1.97,2.34,1.35-.1,2.33-.23,3.31-.25,3.23-.07,5.03,1.26,5.07,4.51.04,3.2-.06,6.58-1.07,9.56-1.59,4.7-3.95,9.15-6.06,13.67-.44.95-.51,1.55-.02,2.61.55,1.18.66,2.82.34,4.11-1.38,5.5-4.66,9.95-8.47,13.98-1.75,1.85-3.92,3.32-5.89,4.96l-.46-.5c.73-.59,1.45-1.2,2.2-1.77,5.79-4.42,9.92-10.02,12.02-17.02.39-1.29.63-2.81-.96-4.02-.49.78-.93,1.47-1.36,2.17-5.43,8.78-10.8,17.6-17.64,25.39-1.15,1.31-2.5,2.46-3.87,3.53-1.32,1.03-2.5,1.01-3.57-.62-1.09-1.66-1.62-3.37-1.32-5.38.34,1.17.68,2.34,1.07,3.7.58-1.64,1.06-2.97,1.53-4.29.14.06.27.11.41.17-.31,1.35-.61,2.7-1,4.44,2.36-4.44,4.49-8.45,6.62-12.45.14.07.28.14.41.22-.48,2.16-.95,4.31-1.46,6.62,4.21-.68,14.48-17.15,14.53-22.91-.49.03-1-.04-1.44.11-6.37,2.2-12.11,5.62-17.71,9.27-2.48,1.62-4.88,3.38-7.12,5.31-2.36,2.03-4.44,4.37-6.71,6.5-.79.73-1.79,1.23-2.69,1.84-.18-.18-.35-.36-.53-.54.95-1.63,1.91-3.26,2.86-4.89q-1.79-1.24.44-7.13c-.3-.15-.6-.3-.76-.38,2.24-3.04,4.43-6.01,6.62-8.98-.13-.11-.26-.21-.39-.32Zm-6.97-20.8c.22.02.47-.02.66.07,1,.47,1.99.98,2.99,1.47-.94.53-1.82,1.28-2.82,1.53-4.08,1.03-8.2,1.91-12.31,2.82-6.8,1.51-11.39,5.32-12.98,12.31-.04.19-.18.36-.19.55-.09,1.48-.41,2.99-.19,4.43.43,2.79,2.65,3.99,5.29,3.09,4.79-1.64,8.96-4.39,12.84-7.55,3.26-2.66,6.39-5.47,9.77-8.39-1.94,3.77-5.49,5.67-8.43,8.1-3,2.49-6.29,4.62-9.74,7.12.72-.23,1.15-.33,1.55-.51,7-3.07,13.64-6.76,19.04-12.24,2.2-2.23,3.96-4.92,5.7-7.55.66-1,.7-2.42,1.02-3.65-.21-.13-.43-.26-.64-.39-1.03.48-2.05,1.01-3.1,1.43-1.08.44-2.48,1.01-3.1-.36-1.14-2.51-3.12-2.59-5.35-2.29Zm27.43,9.86c3.07-.23,5.86-1.23,8.54.56,3,2,2.11,5.13,2.38,8.61.96-.8,1.71-1.13,1.96-1.68,2.35-5.12,4.94-10.16,6.76-15.46.92-2.69.6-5.87.5-8.81-.06-1.59-1.07-2.95-2.97-3.06-3.32-.21-6.05.56-7.84,3.81-2.65,4.83-5.58,9.5-8.38,14.25-.31.53-.58,1.08-.96,1.79Zm-82.34-11.28c1.41-1.1,2.81-2.19,4.22-3.29.13.17.25.35.38.52-1.51,1.16-3.05,2.29-4.52,3.49-.68.56-1.56,1.16-1.79,1.92-1.51,5.02-.06,9.3,5.3,11.23,3.08,1.11,3.61.8,4.69-2.22.39-1.1.78-2.23,1.39-3.2,3.12-4.99,6.31-9.94,9.48-14.9.29-.46.6-.9.93-1.41-9.59-2.86-15.83-.45-20.08,7.86Zm-19.74-7.92c1.05.15,1.63.26,2.21.31,2.77.22,5.62.07,8.28.71,4.29,1.03,6.66-1.62,9.14-4.12.77-.77,1.41-2.28.04-3.05-3.25-1.83-6.96-2.82-10.44-1.47-3.59,1.4-6.27,4.38-9.24,7.62Zm16.59,12.46c-2.19,3.6-2.92,7.37-3.07,11.24-.15,3.97,2.59,6.85,6.41,6.28,2.32-.35,4.64-1.6,6.6-2.96.71-.49.4-2.47.55-3.73-8.61-2.18-9.27-2.85-10.5-10.82Zm76.31,21.59c3.49-2.15,6.36-4.18,9.46-5.74,2.41-1.21,5.03-3.32,8.18.07,0-2.63.11-4.71-.09-6.76-.04-.46-1.25-1.21-1.83-1.13-2.49.32-4.95.87-7.4,1.41-.45.1-.95.49-1.21.89-2.3,3.58-4.55,7.19-7.12,11.26Zm-48.82-32.83c-2.7-1.42-3.21-1.45-4.74.86-3.28,4.95-6.46,9.97-9.53,15.05-.9,1.49-1.28,3.28-2.01,5.25,2.02-.17,3.79.34,4.41-1.84,1.7-5.98,5.17-10.95,8.9-15.78.94-1.21,1.97-2.36,2.97-3.55Zm-49.07,6.03c-.16-.04-.32-.07-.48-.11-.65,1.38-1.27,2.78-1.97,4.13-.58,1.14-.09,1.87.82,2.43,3.29,2.02,7.09,2.49,10.49,1.34,3.81-1.28,6.15-4.77,8.11-8.29-1.11.45-2.04,1.13-3.03,1.7-3.39,1.94-6.91,3.23-10.91,2.18-1.77-.46-3.2-1.14-3.03-3.38Zm83.95,36.56c.17.21.34.41.52.62,1.79-1.2,3.67-2.29,5.34-3.64,1.37-1.12,2.73-2.41,3.65-3.9,2.1-3.41,3.93-6.98,5.86-10.5.25-.45.45-.92.91-1.89-1.32.75-2.3,1.02-2.85,1.66-2.45,2.83-4.79,5.74-7.1,8.68-.22.28.05.93.08,1.28-3.28,1.56-4.27,5.1-6.4,7.7Zm-21.25-27.77c6.41-1.63,13-3.3,19.69-5-4.56-3.01-14.31-.4-19.69,5Zm-43.48,12.85c-2.88-6.3-.43-11.58,1.6-17.25-3.41,2.26-6.72,4.07-5.72,8.71.13.62-.01,1.3.08,1.94.38,2.57,1.27,4.86,4.04,6.6Zm71.67-3.47c.14.13.29.26.43.4,7.34-3.88,11.63-10.55,15.81-17.32-.15-.14-.31-.28-.46-.42-5.26,5.78-10.52,11.56-15.78,17.35Zm-51.69-5.15c4.89-4.54,8.76-9.82,11.6-15.85-5.7,3.94-9.05,9.6-11.6,15.85Zm98.39-43.62c-3.93,1.17-16.63,16.7-17.33,20.53,5.9-6.99,11.62-13.76,17.33-20.53Zm-142.89,41.79c0,1.09-.03,2.18,0,3.26.06,2.09.89,2.97,2.96,3.01.96.02,2.05.05,2.85-.37,3.24-1.68,6.4-3.54,9.58-5.33-.09-.16-.17-.32-.26-.47-1.97.9-3.9,1.92-5.93,2.68-4.26,1.59-7.32.56-9.22-2.78Zm18.71-10.44c-4.26-.5-8.26-.97-12.3-1.44-.87,1.61-.29,2.61,1.28,3.16,3.93,1.36,7.45.16,11.02-1.72Zm-6.47,8.99c-.02-.33-.04-.66-.06-.99-3.68.38-7.09-.28-10.08-2.52-1.48,4.01-.87,5.08,3.03,4.86,2.39-.13,4.74-.88,7.11-1.36Zm80.89,19.66c-1.25-1.57-2.17-.8-3.01-.11-2.87,2.34-4.23,5.44-4.45,9.13,3.65-2.1,4.66-6.27,7.47-9.02Zm-75.07-21.21l-.22-.46c-1.32.48-2.75.78-3.95,1.47-3.83,2.17-7.78,3.47-12.37,2.15.33,2.04,1.69,2.37,3.13,2.45,5.41.31,9.35-2.79,13.41-5.61Zm30.87,2.17c5.43-3.15,8.78-8.01,11.51-13.43-1.35-1.08-1.82-.09-2.43.8-2.44,3.57-4.9,7.12-7.39,10.66-.5.71-1.12,1.32-1.69,1.98Zm48.98-7.19c-.68,5.6-3.87,9.21-7.18,12.79,2.31-1.74,4.58-3.52,6.61-5.52,1.22-1.2,2.23-2.69,3.06-4.2,1.22-2.22.61-4.17-2.74-4.22,2.74,2.81,2.53,5.51-.63,6.72.89-1.65,3.06-2.99.88-5.57Zm-57.51-12.89c3.61.21,7.2.49,10.81.59.7.02,1.42-.62,2.3-1.04-3.13-2.59-8.68-2.26-13.1.45Zm19.19,24.45c-2.67,2.7-4.33,5.92-4.32,9.81,0,1.79.89,3.17,3.01,3.76-1.82-4.86.03-9.13,1.31-13.57Zm-39.99-18.35c-3.89-.39-7.68-1.44-11.26,1.03,2.3,2.24,7.84,1.71,11.26-1.03Zm99.33,24.29l.15-.52c-.77,0-1.67-.26-2.29.04-3.58,1.78-7.13,3.62-10.61,5.59-1.36.77-2.51,1.92-4.2,3.25,6.01-2.96,11.48-5.66,16.95-8.36Zm-116.55-23.96c-3.08,2.86-4.62,9.54-2.25,12.68.82-4.59,1.54-8.68,2.25-12.68Zm97.62,32.41l.57.46c2.83-4.47,5.65-8.94,8.64-13.67-2.46.6-6.99,7.35-9.21,13.22Zm3.02-13.97c-3.7,3.27-8.93,4.86-10.99,9.92,3.49-3.51,8.53-5.27,10.99-9.92Zm-11.3-14.4c-4.36-1.98-8.72-2.92-13.11-.75,0,.25,0,.5,0,.75h13.12Zm12.02,42.25l-3.34,7.52.77.56c1.73-1.58,3.46-3.16,5.18-4.74-2.78,0-1.61-2.09-2.62-3.33Zm5.25-29.83c2.21-.62,8.66-10.39,8.84-13.32-2.86,4.3-5.71,8.6-8.84,13.32Zm-58.04-2.05c-4.83,1.57-8.45,5.41-7.4,7.89,2.56-2.73,4.98-5.31,7.4-7.89Zm-26.94-7.5c1.77-1.52,4.04-2.54,4.61-5.02.17-.72-.51-1.63-.8-2.46-.78.59-1.93,1.02-2.26,1.8-.72,1.72-1.02,3.62-1.55,5.67Zm99.03-14.37c.17.06.34.11.5.17,3.07-4.23,6.14-8.47,9.21-12.7l-.47-.36c-2.99,3.69-5.99,7.35-8.92,11.08-.33.42-.23,1.19-.33,1.8Zm-93.46,8.82l-.64-.78c2.2-1.8,4.4-3.59,6.6-5.39-.11-.18-.21-.36-.32-.54-2.29,1.22-4.58,2.43-6.92,3.68.56.85.87,1.2,1.03,1.61.17.45.18.95.26,1.43Zm27.48-3.57l-.66-.48c-4.72,2.61-6.92,7.41-9.55,11.86.35.02.4-.23.53-.42,2.53-3.62,5.03-7.26,8.97-9.58.38-.22.48-.91.7-1.38Zm60.94,2.87l-.5-.37c-3.34,4.52-6.68,9.04-10.01,13.57.15.11.3.22.45.33,3.5-4.4,7.52-8.43,10.06-13.53Zm-109.77-7.04c-3.69,3.4-6.47,8.99-5.64,11.71.97-2.29,1.8-4.22,2.62-6.16.77-1.81,3.37-2.62,3.02-5.55Zm80.84,10.91q2.91,3.85,7.25.67c-2.25-.21-4.5-.42-7.25-.67Zm-29.61-9.42c-.35-1.31-.32-2.59-.94-3.17-1-.94-3.1.23-4.78,2.48,1.78.21,3.49.42,5.72.69Zm6.32,38.09c5.01.72,8.11-2.01,11.33-4.44-3.63,1.42-7.25,2.85-11.33,4.44Zm-42.84-32.49c-.11-.31-.22-.63-.33-.94-2.62,1.01-5.25,2.02-7.87,3.03,3.02.25,5.98.29,8.2-2.09Zm9.3-9.69c.4-.47.83-.91,1.19-1.41,1.16-1.65,1.02-2.17-.91-2.64-1.41-.34-2.87-.45-4.77-.72,1.9,1.54,4.4,1.85,4.5,4.78Zm57.98,49.78c-2.86.21-3.82,3.25-5.14,5.91,1.83-2.11,3.67-4.22,5.14-5.91Zm-68.38-43.16c-3.2-.26-5.89-.48-8.58-.71,2.56,1.79,6.15,2.01,8.58.71Zm36.4,29.48c1.39-3.64,2.76-7.22,4.29-11.23-3.07,3.48-3.86,7.3-4.29,11.23Zm-5.73-32.1c-.04.21-.08.42-.11.63,1.09.35,2.17.99,3.26.98,1.68-.02,2.55.36,2.01,2.43l.56-.15c.27-.95.54-1.9.88-3.1-2.4-.29-4.49-.54-6.59-.79Zm65.27,38.79c.18.06.35.12.53.18,1.31-3.02,2.62-6.03,3.93-9.05-.27-.12-.55-.24-.82-.35-1.21,3.07-2.42,6.15-3.64,9.22Zm-88.35-37.96c.16.12.32.25.48.37,2.14-1.56,3.6-3.64,4.64-6.05-.14-.11-.29-.22-.43-.33-1.56,2-3.13,4.01-4.69,6.01Zm-2.71-10.38l7.59,1.04c.02-.2.05-.41.07-.61-2.4-1.38-5.03-.97-7.67-.43Zm15.08,33.81c-4.15-.01-4.35.18-3.46,2.89,1.2-1,2.33-1.95,3.46-2.89Zm68.31-6.59c-1.48,1.76-2.95,3.51-4.43,5.27,2.79-.69,3.4-3.14,4.43-5.27Zm-88.77-5.37c.27.14.54.29.8.43.92-1.72,1.85-3.44,2.77-5.16-.25-.13-.5-.27-.76-.4-.94,1.71-1.88,3.42-2.82,5.13Zm51.74-1.19c.05.19.1.37.16.56l7.34-1.98c-.06-.22-.12-.44-.19-.66-2.44.7-4.87,1.39-7.31,2.09Zm-12.25-6.92q.8-2.39-1.09-2.9c-.21.83-.41,1.67-.64,2.57.68.13,1.16.22,1.73.33Zm-52.23-5.93c.2.23.4.46.6.69,1.38-1.31,2.77-2.63,4.15-3.94-.13-.15-.26-.29-.38-.44-1.46,1.23-2.91,2.46-4.37,3.69Zm7.14-3.44c-.14-.14-.29-.28-.43-.42-1.87,1.7-3.74,3.4-5.61,5.09l.44.48,5.6-5.15Zm1.56,20.26c2.79-.34,3.25-.8,3.34-2.75-.92.76-2.03,1.68-3.34,2.75Zm-4.98-11.7c-1.5-1.31-2.84-.94-4.12,1.2,1.46-.42,2.76-.8,4.12-1.2Zm109.91,20.13c-.14,0-.29-.01-.43-.02v5.2c.14,0,.29,0,.43,0v-5.18Zm-30.03,12.51c1.82.56,2.73-.26,3.38-2.67-1.15.91-2.13,1.68-3.38,2.67Z"/><path d="m3.7,67.61c1.51-1.16,3.03-2.32,4.48-3.44-2.52.73-5.11,1.47-7.7,2.22-.16-.29-.32-.57-.48-.86,1.61-1.6,3.22-3.21,4.83-4.81.19.18.39.36.58.54-1.42,1.12-2.84,2.24-4.27,3.36.16.25.31.51.47.76.93-.22,1.95-.27,2.76-.7,4.74-2.53,9.69-4.78,14.08-7.83,11.29-7.84,22.32-16.07,33.48-24.11,1.31-.94,2.75-1.7,4.13-2.54.18.26.36.51.54.77-3.26,2.65-6.53,5.3-9.79,7.95.01.06.02.11.03.17,2.21-.98,4.43-1.97,6.64-2.95.15.2.3.41.45.61-2.19,1.75-4.37,3.5-6.56,5.26.05.1.09.2.14.3,1.62-.49,3.25-.96,4.86-1.48,6.11-2,12.36-2.91,18.8-2.58.92.05,1.87-.39,2.79-.65,10.55-2.95,21.1-5.91,31.65-8.88,1.08-.3,2.14-.68,3.26-.83-10.98,6.43-23.32,8.75-35.43,11.82-.13,1.62.74,2.33,2.17,2.69,5.86,1.48,11.74,2.68,17.84,2.73,3.02.03,6.1.38,9.04,1.08,3.7.88,4.32,3.6,1.62,6.31-1.17,1.18-2.58,2.12-3.74,3.56,5.34-1.51,10.69-3.02,16.03-4.53.11.24.22.48.33.72-4.25,3.19-8.82,5.87-13.68,8.44h4.06c.09.2.17.41.26.61-.95.77-1.81,1.69-2.85,2.28-5.28,2.97-10.76,5.45-16.75,6.68-1.38.28-2.72.84-4.06,1.33-1.51.55-1.6,1.57-.71,2.74.38.5.85,1.06,1.41,1.3,2.89,1.28,5.79,2.58,8.77,3.61,1.1.38,2.54.37,3.65.01,4.17-1.35,8.28-2.92,12.41-4.41-.05-.21-.1-.42-.15-.64-1.65.26-3.31.46-4.94.81-1.65.35-3.26.87-4.9,1.24-1.71.39-3.42.81-5.15.99-1.63.17-3.28.04-4.92.04-.04-.16-.08-.32-.11-.47.32-.21.63-.55.98-.61,1.21-.2,2.44-.4,3.67-.44,7.07-.24,13.32-3.04,19.73-6.19-1.55-3.51.79-5.41,3.19-7,5.3-3.49,10.74-6.79,16.14-10.12,1.58-.97,3.26-1.8,4.9-2.7-4.4-2.31-8.69-4.41-12.82-6.77-2.98-1.7-5.89-3.57-8.61-5.65-3.49-2.66-3.9-6.36-1.35-9.95,3.18-4.48,7.3-7.95,12.2-10.37,7.94-3.92,16.28-6.4,25.38-6.4.03-.59-.06-1.18.12-1.67.19-.51.65-.92,1.02-1.4-.29-.19-.58-.38-.87-.57.1-.18.14-.33.23-.39,1.05-.77,2.16-1.47,3.17-2.29.75-.61,1.34-1.42,2.06-2.06,2.29-2.03,3.78-1.59,4.58,1.32.07.25.15.49.29.9,3.89-.67,7.75-1.52,11.66-1.96,8.37-.95,16.76-1.79,25.16-2.46,3.45-.28,4.45,1.12,3.8,4.51-.43,2.24-1.18,4.34-3.13,5.86.19-.39.43-.76.57-1.16.68-1.87,1.55-3.71,1.95-5.65.44-2.09-.35-2.96-2.53-2.88-4.6.17-9.2.45-13.79.8-2.5.2-4.97.65-7.98,1.05.68.26.82.35.98.37,4.55.56,9.1,1.11,13.65,1.67.45.06.97.04,1.32.27.85.53,2.09,1.08,2.27,1.83.16.68-.69,1.89-1.41,2.44-4.4,3.36-9.61,4.81-14.96,5.66-4.03.64-8.12.87-12.19,1.23-1.42.13-2.27,1.08-1.59,2.26,1.56,2.71,1.14,5.61.72,8.35-1.4,9.03-2.94,18.05-4.74,27.01-.68,3.4-2.2,6.63-3.41,9.91-.27.74-.84,1.38-1.55,2.02-1.24-3.79-1.15-7.65-.79-11.76-2.77,1.63-5.26,3.1-7.76,4.56-.78.46-1.62.85-2.34,1.39-1.21.9-2.32,1.94-3.53,2.84-2.07,1.53-4.02,3.42-6.34,4.42-5.77,2.48-11.7,4.57-17.59,6.76-1.32.49-2.77.65-3.5,2.15-.23.47-.85.79-1.33,1.1-7.86,5.1-15.88,9.88-25.14,12.06-.38.09-.74.24-1.11.37q-6.97,2.5-6.99,9.84c0,1.56-.23,3.13-.35,4.69-.27,0-.54,0-.81,0-.2-2.99-.4-5.99-.6-8.98-.18-.1-.36-.21-.53-.31-1.51,2.3-3.01,4.6-4.87,7.43.57-2.54,1.11-4.55,1.45-6.6.35-2.09.51-4.22.77-6.42-.87-.15-1.6-.28-2.77-.48.75-1.24,1.36-2.25,1.96-3.25.16.08.31.17.47.25-.38.77-.75,1.53-1.15,2.34,1.73.71,1.81-.45,1.85-1.49.18-4.67.32-9.34.45-14.01.04-1.61,0-3.23,0-4.85-2.77-.87-5.85.59-8.11-1.68-.12-.12.15-.62.27-1.07,2.18,2.88,5.03,1.22,7.93,1.89-.4-2.91-.66-5.4-1.17-7.84-.09-.45-1.14-.86-1.81-1.01-4.34-.94-7.71-3.47-10.79-6.52,3.79,2.38,7.18,5.54,12.24,5.95-.17-1.03-.27-1.84-.43-2.64-.73-3.49-1.51-6.97-2.2-10.47-.32-1.64-1.08-2.69-2.8-3.02-.59-.11-1.13-.54-1.98-.96.74-.47,1.23-.78,1.71-1.09-.02-.17-.04-.35-.05-.52-3.43.31-6.92.31-10.27,1-7.39,1.51-14.39,3.83-20.78,8.28-8.24,5.74-16.99,10.77-25.64,15.9-2.96,1.75-6.27,2.9-9.42,4.32-.11-.19-.22-.38-.32-.57Zm153.79-16.73c.28-1.44.5-2.65.74-3.85,1.99-9.8,3.36-19.68,3.72-29.69.02-.65-.12-1.8-.42-1.88-2.65-.74-4.83-2.91-7.85-2.54-4.92.61-9.88,1.03-14.78,1.75-5.84.87-11.4,2.64-15.99,6.55-3.23,2.75-5.7,6.06-5.98,10.52-.15,2.35.56,3.44,2.8,3.98,1.81.44,3.69.81,5.54.82,5.64.03,11.29-.28,16.92-.18,6.82.12,9.69,4.43,7.51,10.91-.32.96-.66,1.92-1.02,2.98,3.02.21,5.84.41,8.8.62Zm-83.49-8.06c.87,4.7,1.65,9.14,2.55,13.55.1.47.92,1.13,1.41,1.14,2.84.02,5.7-.06,8.53-.26,3.03-.21,6.05-.67,9.08-.89,3.96-.3,6.66-2.66,8.91-5.55,1.18-1.52.7-2.79-1.13-3.55-1.41-.58-2.97-.97-4.49-1.13-5.59-.59-11.21-.96-16.79-1.61-2.61-.31-5.17-1.08-8.08-1.71Zm40.3,26.31c7.05-3.38,13.3-7.82,19.47-12.42-5.53,5.28-11.96,9.32-18.63,13.31,1.67.56,3.35,1.15,4.89.89,9.5-1.6,17.09-6.48,23.04-13.97.32-.41.34-1.45.05-1.87-1-1.42-2.23-2.67-3.34-4.01-.77-.93-1.49-.86-2.51-.28-3.6,2.06-7.39,3.8-10.87,6.04-4.02,2.58-7.82,5.52-11.65,8.39-1.32.99-1.35,2.35-.43,3.93Zm4.56-32.76c-.09.15-.17.3-.26.44,1,.77,1.93,1.67,3.01,2.3,4.6,2.65,9.19,5.32,13.9,7.75,2.5,1.29,5.18,2.39,7.9,3.05,4.34,1.06,4.89.55,5.97-3.81,1.34-5.42-1.14-8.77-6.74-9.04-1.49-.07-2.98-.05-4.47-.01-6.45.17-12.91.87-19.31-.68Zm48.05-21c1.2,0,1.91.08,2.59-.01,4.95-.63,9.98-.93,14.81-2.08,3.65-.87,7.06-2.8,10.51-4.4.69-.32,1.07-1.32,1.59-2-.79-.49-1.53-1.26-2.39-1.43-5.04-1-10.02-.92-14.98.71-2.82.93-5.79,1.4-8.67,2.14-.57.15-1.39.45-1.55.88-.71,1.91-1.22,3.89-1.9,6.19Zm-73.45,65.14c-3-1.35-6.14-2.69-9.2-4.17-.77-.37-1.45-1.11-1.94-1.84-1.07-1.58-.8-2.68.94-3.41,1.72-.72,3.52-1.32,5.35-1.72,5.64-1.26,10.77-3.71,15.78-6.47.49-.27.88-.74,1.32-1.12-.11-.25-.21-.51-.32-.76-2.75.57-5.54.98-8.24,1.73-4.67,1.3-9.26,2.86-13.92,4.18-1.45.41-3.03.41-4.55.59.93,6.81,1.83,13.45,2.76,20.28,1.12-.28,2.2-.47,3.22-.85.57-.22,1.09-.69,1.51-1.16.62-.69.99-1.71,1.72-2.18,1.84-1.18,3.82-2.13,5.57-3.08Zm73.77-60.39c-.29-.04-.58-.08-.87-.11-2.2,13.21-4.39,26.41-6.59,39.62.2.03.4.07.59.1,4.07-12.9,6.25-26.12,6.87-39.6Zm-9.3,43.92c.17.02.33.03.5.05.22-.58.6-1.15.62-1.73.02-.93-.41-1.89-.3-2.79,1.02-9.22,2.05-18.43,3.2-27.63.57-4.54.89-9.18,3.71-13.13.47-.65.41-1.69.62-2.65-.81-.14-1.38-.27-1.95-.33-.44-.05-.88,0-1.42,0-.09.58-.22,1.08-.23,1.58-.29,12.18-2.93,24.04-4.68,36.03-.5,3.47-.08,7.07-.08,10.61Zm-12.93-4.03c4.29-2.47,8.73-4.42,12.22-8.13-2.97-.5-5.84-.62-8.72-.71-.22,0-.55.17-.65.35-1.34,2.6-4.29,4.6-2.85,8.49Zm16.45-45c.23-.18.46-.36.68-.54,0-1.46.06-2.93-.04-4.39-.02-.33-.57-.84-.94-.9-2.09-.36-4.2-.66-6.31-.86-.48-.04-1.22.29-1.43.68-.16.3.19,1.16.55,1.4,2.46,1.59,4.99,3.08,7.5,4.61Zm-71.11,71.03c4.42.59,16.24-3.95,18.28-7.09-6.76,1.37-12.19,5.1-18.28,7.09Zm-11.93-24.34c5.2-1.45,10.32-2.87,15.44-4.29-.02-.04-.04-.09-.06-.13-5.51.42-11.02.85-16.86,1.3.47.98.92,1.95,1.48,3.13Zm8.52,23.47c.15.37.29.75.44,1.12,4.76-1.91,9.52-3.83,14.28-5.74-.07-.18-.14-.35-.21-.53-5.55-.17-10.29,1.82-14.51,5.15Zm-36.47-46.59c-3.63.82-15.81,8.29-18.25,11.2,6.78-2.78,12.68-6.51,18.25-11.2Zm112.41-29.31c0,1.62-.02,3.15,0,4.69.02,1.45,1.22,1.19,2,1.16.59-.03,1.5-.45,1.66-.91.58-1.7.91-3.5,1.37-5.42-1.62.16-3.2.31-5.03.49Zm-81.21,82.39c3.65-1.48,7.32-2.96,10.99-4.45-.02-.17-.04-.34-.06-.52-2.9.4-5.83.65-8.69,1.25-2.82.59-2.78.74-2.24,3.72Zm38.04-19.36c-1.94-.69-3.49-1.26-5.06-1.79-.35-.12-.8-.26-1.1-.13-2.34,1.01-4.65,2.09-6.97,3.15.04.15.08.3.12.44,4.24-.55,8.48-1.09,13.01-1.68Zm3.07-.07c6.83-2.87,14.33-4.58,19.88-10.21-6.63,3.4-13.25,6.81-19.88,10.21Zm-4.99-46.96c-2.3,2.13-4.16,4.41-3.65,7.71.41,2.68,2.52,3.92,4.69,5.18-4.16-4.01-3.38-8.36-1.04-12.88ZM17.4,60.02c.13.22.25.44.38.66,5.65-3.54,11.3-7.09,16.95-10.63-.09-.14-.17-.27-.26-.41-6.19,2.64-11.64,6.5-17.07,10.38Zm61.03,6.29c3.45,1.47,4.51-1.8,7.2-2.87-2.84-.35-5.11-.63-7.57-.94.13,1.31.25,2.57.37,3.81Zm28.22-10.7c-4.95,2.07-9.89,4.14-14.84,6.21,2.94.56,11.95-3.17,14.84-6.21Zm-30.36,41.36c2.85-2.38,4.23-4.66,2.99-8.01-.61.03-1.28.06-2.03.1-.32,2.6-.61,5.01-.96,7.91Zm85.61-56.2c.17.02.34.04.51.05.97-6.51,1.93-13.01,2.9-19.52-2.94,6.2-2.56,12.93-3.4,19.47Zm-84.06,47.84c.66-.59,1.56-1.04,1.54-1.44-.22-4.69-.58-9.37-.91-14.05-.21,0-.42.01-.63.02v15.47Zm69.36-37.35c-2.54-.4-4.68-.73-7.09-1.11,1.57,1.87,2.9,3.45,4.36,5.2.9-1.36,1.71-2.57,2.73-4.09ZM182.17,4.16c-6.33-1.25-12.31.72-18.38,2l18.38-2Zm-26.5,1.08c.19.28.38.55.57.83,1.5-.33,3.03-.6,4.5-1.04.51-.15,1.29-.74,1.27-1.08-.04-.7-.4-1.53-.92-1.98-.3-.26-1.28-.09-1.72.22-1.3.93-2.48,2.02-3.7,3.05Zm-46.16,72.14c.04-.27.08-.55.13-.82-.43-.24-.97-.79-1.28-.68-2.66.96-5.28,2.04-7.92,3.08.07.21.13.42.2.62,2.95-.74,5.91-1.47,8.86-2.21ZM142.97,12.89c3.67-.23,7.35-.47,11.02-.7-.01-.2-.03-.4-.04-.6-3.73-.54-7.39-.2-10.98,1.3Zm-28.57,40.38c-4.41-.05-6.56,3.85-10.16,5.22.1.17.2.35.3.52,3.29-1.91,6.57-3.82,9.86-5.73ZM169.7,7.82c3.07-.73,5.92-1.4,8.77-2.07-4.31-.6-8.17.34-8.77,2.07Zm-30.89,54.97c4.25-.99,5.66-2.52,4.76-5.24-1.59,1.75-3.12,3.43-4.76,5.24Zm30.16-55.84c-.08-.17-.15-.34-.23-.51-1.52.11-3.05.17-4.56.37-.45.06-.84.56-1.26.86.49.25.97.71,1.46.72,1.03.01,2.08-.12,3.07-.39.56-.15,1.01-.69,1.51-1.05Zm-53.37,68.65c-.1-.22-.2-.44-.31-.65-2.18,1.05-4.37,2.1-6.55,3.15.09.19.17.37.26.56,2.89.51,4.41-2.01,6.6-3.05ZM156.14,7.17c0,.3.01.6.02.9,1.65.13,3.31.3,4.97.35.3,0,.62-.44.93-.68-.21-.19-.42-.54-.64-.55-1.76-.04-3.52-.03-5.27-.03Zm-65,56.28c-.07-.24-.15-.48-.22-.72-2.11.63-4.23,1.27-6.34,1.9l.22.72c2.11-.63,4.23-1.27,6.34-1.9Zm-5.9-1.35c.04.22.09.43.13.65l4.57-.9c-.04-.21-.08-.43-.13-.64-1.52.3-3.05.6-4.57.89Z"/><path d="m191.95,122.89c2.56-.49,5.12-.99,7.67-1.48,0-.2.01-.4.02-.6-7.73.17-15.44.17-22.85-2.11,0-.22-.01-.44-.02-.65.58-.14,1.15-.36,1.74-.4,8.77-.55,17.53-.41,26.24.65,7.04.85,13.97.27,21.21-.93-8.77-2.79-17.66-4.6-24.67-10.52.09-.19.18-.37.27-.56,1.55,1.1,2.95,2.56,4.67,3.24,5.78,2.28,11.64,4.36,17.53,6.37,3.16,1.08,6.42,1.12,9.78.66,2.46-.34,5.39-.6,7.48.41,5.99,2.88,11.92,1.5,17.8.47,5.14-.9,10.15-2.6,15.17-4.08,3.43-1.01,5.28-3.81,6.96-6.72,1.45-2.52,2.99-4.99,4.36-7.55.46-.86,1.04-2.15.71-2.84-.68-1.41-1.98-.58-3.05-.12-3.12,1.34-6.31,2.46-9.78,2.16-1.08-.09-2.2-.3-3.2-.71-2.68-1.1-3.3-2.27-2.98-5.14.46-4.12,2.27-7.74,4.52-11.07,3.53-5.2,7.18-10.34,11.04-15.3,3.22-4.15,7.43-7.2,12.18-9.5,4.2-2.03,8.28-4.3,12.54-6.19,3.79-1.68,7.88-1.49,11.89-.94,1.31.18,2.61.79,3.79,1.43,2.66,1.45,2.81,1.95,2.38,5.01-1.38,9.96-6.28,18.18-12.8,25.53-8.36,9.42-17.22,18.36-26.77,26.6-3.68,3.17-7.09,6.66-10.64,10-8.72,8.2-18.81,13.65-30.68,15.88-5.17.97-10.25,2.23-15.58,1.99-5.04-.23-9.66-1.71-14.06-4.09-2.97-1.6-6.23-2.74-8.97-4.66-3.02-2.11-6.12-2.77-9.65-2.59-1.39.07-2.81-.4-4.21-.63-.02-.33-.03-.66-.05-.99Zm57.15,1.21c-1.97,1.56-4,1.64-5.93,1.79-7.65.59-15.41-.75-22.99,1.59-2.57.79-5.38.79-8.08,1.16,8.27,4.9,17.34,5.21,26.49,4.9,10.66-.36,18.96-6.17,27.74-11.93-6.88.37-13.26.71-19.83,1.06.9.5,1.6.88,2.6,1.43Zm33.72-38.13c.18-.11.42-.2.6-.36,8.06-7.14,16.1-14.29,24.17-21.41.8-.7.81-1.32.07-1.91-.65-.51-1.38-1.04-2.16-1.23-3-.76-6.06-1.02-9,.16-7.68,3.1-12.54,9.06-15.6,16.45-1.1,2.66-.86,6.93,1.91,8.3Zm.44.55c2.56,1.05,4.78,1.63,6.86.69,3.68-1.67,6.98-3.85,9.2-7.48,2.8-4.59,5.87-9.01,8.8-13.52.3-.47.46-1.02.69-1.54l-.61-.48c-8.22,7.36-16.45,14.73-24.94,22.33Zm39.25-26.16c.16.14.31.29.47.43-9.74,12.78-19.48,25.56-29.22,38.34.22.19.44.37.66.56,6.36-6.83,12.81-13.57,19.04-20.51,3.92-4.36,7.09-9.3,8.97-14.91,1.07-3.18,1.81-6.47,2.69-9.71-.18-.04-.36-.09-.54-.13-1.53,2.66-3.05,5.32-4.58,7.99.05.04.1.08.15.12.78-.73,1.57-1.45,2.35-2.18Zm-16.28,20.36c-.11-.13-.23-.25-.34-.38-3.84,3.15-7.7,6.29-11.52,9.46-.48.4-.8,1.01-1.18,1.53-3.76,5.27-7.52,10.54-11.27,15.82-.56.8-1.05,1.65-1.57,2.48.21.15.42.3.62.44,10.27-8.18,17.58-18.93,25.25-29.36Zm-6.72-25.85c.08.17.16.34.24.51,2.81-1.1,5.66-2.12,8.42-3.33,2.54-1.11,5.13-1.32,7.8-.83,1.78.33,2.58,1.48,2.75,3.27.11,1.19.49,2.36.86,4.06,1.69-2.42,2.98-4.25,4.26-6.07-4.26-4.54-16.7-3.24-24.32,2.38Zm-22.04,35.9c-3.01-1.94-2.67-4.51-1.68-6.94,1.09-2.69,2.59-5.21,3.92-7.8.93-1.82,1.89-3.62,2.84-5.43-.14-.1-.29-.2-.43-.3-1.36,1.51-2.76,2.99-4.08,4.53-3.14,3.67-4.77,7.99-5.2,12.75-.23,2.56,1.49,3.86,4.64,3.18Zm-4.9,25c-10.52,3.4-20.84,5.5-31.49,5.94,7.66,0,15.28-.33,22.9-.76,3.53-.2,6.05-2.28,8.59-5.18Zm41.47-53.08c.29-.16.58-.33.86-.49.83-1.65,1.75-3.27,2.44-4.98.18-.46-.16-1.4-.58-1.78-2.37-2.17-8.91-2.54-11.7-.7.37.1.68.2.98.27,3.34.72,6.14,2.06,7.03,5.79.16.67.64,1.26.97,1.89Zm-112.84,59.59c-.06.3-.11.6-.17.91,1.03.19,2.07.6,3.09.55,10.68-.53,21.35-1.12,32.02-1.71.73-.04,1.45-.2,2.17-.3-.02-.18-.03-.36-.05-.54-12.39-.76-24.72.49-37.07,1.09Zm28.9,1.12c-.03-.26-.06-.52-.09-.77-8.75.59-17.49,1.19-26.5,1.8,2.32,2.71,4.26,3.15,7.01,2.15,1.92-.7,3.9-1.38,5.91-1.67,4.54-.64,9.11-1.02,13.67-1.51Zm66.06-63.7c.06.18.12.36.18.53,5.18-1.78,10.36-1.68,15.56.02-.8-3.43-6.59-5.92-9.87-4.29-.79.39-1.35,1.23-2.05,1.81-.37.3-.83.51-1.26.73-.85.41-1.71.8-2.56,1.2Zm-116.64,58.82c7.85,1.76,15.8,2.4,23.8.83,0-.28,0-.55.01-.83h-23.81Zm92.64-35.58c-.11-.05-.22-.09-.32-.14-1.16,2.76-2.47,5.48-3.42,8.32-.41,1.21-.08,2.67-.09,4.01,1.34-.27,2.68-.54,4.01-.84.13-.03.21-.3.32-.45-.17,0-.33,0-.5-.01v-10.88Zm14.52,8.6c-2.73.17-5.5.46-8.27.49-1.89.02-3.07.95-4.2,2.25,3.76,2.73,7.73,1.8,12.47-2.74Zm-66.43,27.08c0,.3,0,.59,0,.89,6.47.32,12.93.67,19.4.94.82.03,1.65-.37,2.48-.56-4-.77-7.83-1.48-11.7-1.67-3.38-.17-6.78.25-10.17.4Zm27.36,5.73c-3.38-2.15-12.7-1.63-16.14.75,5.36.33,10.64.8,16.14-.75Zm5.76,6.21c4.39-.63,16.4-7.79,18.64-11.73-6.23,3.92-12.46,7.84-18.64,11.73Zm55.44-61c.24.1.48.19.73.29.49-.65,1.14-1.24,1.45-1.97,2.65-6.13,1.88-7.41-4.1-8.05-.69-.07-1.39-.01-1.97-.01,1.44.9,2.93,1.83,4.48,2.8.52-.24,1.19-.54,1.83-.84-.83,2.67-1.63,5.23-2.43,7.79Zm-23.02,25.33c2.36,1.46,1.25,2.9.29,4.32-1.16,1.74-2.35,3.46-3.53,5.19l.53.36c2.98-4.26,5.96-8.52,8.95-12.78-.12-.11-.24-.22-.36-.33-1.89,1.04-3.77,2.08-5.88,3.24Zm22.45-27.96c-2.52,3.89-5.05,7.77-7.57,11.66,5.92-5.04,8-7.09,7.57-11.66Zm-29.33,11.49c-.82,1.79-1.77,3.54-2.41,5.39-.43,1.25-.68,2.69-.49,3.97.13.83,1.12,1.62,1.89,2.2.2.15,1.05-.56,1.6-.88-2.88-3.65-.95-7.11-.6-10.69Zm-54.46,47.77c-.03-.2-.06-.41-.08-.61-4.36-.59-8.52.35-12.65,1.46l.13.94c4.2-.6,8.41-1.19,12.61-1.79Zm44.95-29.95c2.22,1.77,7.28,1.9,9.12.5-1.43-.52-3.03-1.12-4.65-1.67-.39-.13-.88-.17-1.26-.05-1.08.35-2.13.8-3.22,1.22Zm-68.63,24.48c.02.31.04.62.05.92,5.33-.34,10.66-.68,15.99-1.02-.02-.27-.03-.55-.05-.82-5.33.3-10.66.61-15.99.91Zm19.5,12.62c5.52,2.3,11.13,2.1,16.79,1.24-5.57-.41-11.14-.82-16.79-1.24Zm88.97-80.96c2.96.77,5.76,1.5,8.66,2.25.28-1.04-.19-2.11-1.41-2.5-2.43-.79-4.88-.64-7.25.25Zm-49.82,65.97c-5.41.45-10.81.89-16.22,1.34l.06.72c5.49.32,10.81-.89,16.15-2.06Zm20-37.1c-1.37,3.1-1.08,5.77,1.01,7.05.51-.48,1.06-.99,1.34-1.25-.87-2.14-1.62-4.01-2.35-5.8Zm-47.2,36.14c-.01.19-.03.37-.04.56,3.53.26,7.06.52,10.6.78.01-.21.03-.43.04-.64-3.46-1.32-7.02-1.21-10.6-.7Zm82.81-53.15c-.26-.11-.52-.22-.77-.34-1.11,2.22-2.23,4.44-3.34,6.66.17.09.35.18.52.27,1.66-1.95,3.74-3.68,3.59-6.59Zm.86-.17c2.71-3.9,3.92-5.3,2.34-6.64q-2.95,5.15-2.34,6.64Zm-27.2-.99c.15.17.3.34.45.52,2.33-1.79,4.67-3.58,7-5.37-.12-.15-.23-.31-.35-.46-2.96.98-5.02,3.15-7.1,5.32Zm-2.7,27.42c0-.2,0-.4-.01-.61q-5.91-.32-7.03,1.25c2.64-.24,4.84-.44,7.04-.64Zm-85.47,33.21c-.96-1.59-4.69-1.63-6.72,0h6.72Zm80.73-34.93h5.63c0-.21,0-.41-.01-.62-1.76.52-3.68-2.13-5.62.62Zm-10.25,29.46c.16.2.32.41.48.61,1.77-1.38,3.54-2.76,5.31-4.15-.18-.23-.36-.46-.54-.69-1.75,1.41-3.5,2.81-5.25,4.22Zm22.97-29.85c-.14-.19-.28-.37-.42-.56l-7.34,5.02c.12.18.25.36.37.54,2.46-1.67,4.93-3.34,7.39-5Zm-5.94-24.99c-.2-.18-.4-.37-.59-.55-1.88,1.91-3.75,3.81-5.63,5.72.16.16.32.32.49.48,1.91-1.88,3.82-3.76,5.73-5.64Zm31.33-2.97c.26.15.51.29.77.44,1-1.72,2-3.44,3.01-5.16-.18-.11-.37-.22-.55-.33-1.07,1.68-2.15,3.37-3.22,5.05Zm-46.82,30.16c.35,1.28.57,2.06.87,3.13.9-.7,1.5-1.17,2.26-1.76-1.05-.46-1.8-.78-3.13-1.36Z"/><path d="m117.68,228.45c1.75,2.15,3.48,4.23,5.16,6.35,1.81,2.27,3.57,4.58,5.35,6.87.16.2.36.38.55.56,2.41,2.26,2.99,2.19,4.71-.53.16-.25.4-.45.75-.83-.47,2.8-1.64,3.93-4.32,3.66,2.85,2.56,5.29,4.75,7.73,6.94,0,.12,0,.23,0,.35-.64-.24-1.43-.31-1.88-.75-2.92-2.84-5.77-5.76-8.63-8.66-.57-.58-1.07-1.21-1.79-1.69.85,6.08,6.06,9.74,7.94,15.5-1.08-.72-2.16-1.43-3.24-2.16-.59,2.97-.59,2.93-3.73,2.11-8.08-2.1-14.27-7.1-19.99-12.85-.27-.28-.53-.57-.76-.88-1.75-2.36-3.81-3.51-7.02-3.26-3.91.31-7.41-1.5-10.66-3.68-.95-.64-2.17-.97-3.32-1.2-1.46-.28-2.96-.32-4.45-.45-8.67-.72-12.46-5.68-13.14-13.89-.7-8.47,1.13-16.5,6.4-23.29,2.47-3.18,5.64-5.88,8.74-8.5,2.74-2.32,5.91-1.53,8.75-.02,1.3.69,2.15.59,3.09-.32,3.96-3.83,8.75-6.38,13.86-8.06,2.84-.93,6.22-1.08,9.16-.52,1.7.32,3.29,2.55,4.4,4.27,2.15,3.3,3.89,6.87,5.88,10.28,2.96,5.09,2.47,10.58,1.48,15.92-.99,5.33-3.55,10.13-7.18,14.26-1.24,1.41-2.44,2.85-3.84,4.48Zm-27.75-30.28c-.09.1-.18.2-.26.3-.45-.32-.91-.63-1.78-1.24-.98,1.7-2.26,3.18-2.75,4.89-3.12,10.97,3.92,23.15,16.05,24.41,1.44.15,2.25-.09,2.72-1.64.43-1.42,1.34-2.69,2.04-4.02.14.08.28.16.43.25-.78,1.74-1.55,3.48-2.33,5.22.2.15.41.3.61.46.77-.52,1.52-1.08,2.32-1.56,1.82-1.07-.21-2.64.53-4,.57.21,1.09.4,1.67.62.63-.88,1.5-1.71,1.9-2.73,3.33-8.48,3.11-16.85-1.17-24.97-.46-.86-1.49-1.73-2.43-1.99-6.85-1.86-12.94-.32-18.23,4.4-.08.07-.09.22-.15.39.27.39.55.81.83,1.22Zm.89-9.09c-2.89-2.14-6.19-2.09-9.21.17-3.89,2.9-7.08,6.42-9.56,10.63-4.13,7.02-5.48,14.6-4.05,22.48,1.48,8.18,9.71,13.15,17.21,10.84-1.23-1.83-3.03-2.71-5.02-3.44-3.57-1.31-6.2-3.79-6.71-7.61-.31-2.3-.09-4.92.76-7.06,1.79-4.51,2.87-9.09,3.01-13.92,0-.32.05-.65.13-.96.85-3.26,2.32-6.05,5.58-7.53,2.58-1.17,5.14-2.35,7.87-3.59Zm9.54,1.72c1.45,0,2.92-.11,4.36.03,1.99.19,4.33.24,5.3,2.25,1.49,3.06,3.23,6.27,3.59,9.55.67,6.09.81,12.33-2.45,18-.23.39-.03,1.03-.03,1.67.47-.16.61-.17.71-.24.21-.15.39-.34.59-.51,6.67-5.67,7.42-13.1,6.34-21.1-.19-1.43-.87-2.24-2.35-2.32-.05,0-.08-.2-.16-.4.52-.14,1.02-.28,1.82-.5-1.23-2.5-2.34-4.83-3.54-7.11-.24-.46-.77-1.01-1.23-1.08-4.44-.7-8.83-.79-12.93,1.77Zm26.67,61.01c-.82,1.94-2.14,2.51-3.95,1.52-1.17-.65-2.28-1.5-3.23-2.45-3.59-3.58-5.75-7.95-6.93-12.85-.35-1.44-2.43-2.56-3.76-1.95-1.92.88-3.79,1.89-5.68,2.84,4.87,7.38,19.56,17.87,25.41,16.68.78-1.96-.76-2.73-1.86-3.79Zm-31.5-21.07c-6.56-1.66-11.08-5.24-13.75-10.97-2.75-5.9-1.81-11.69.69-17.52-1.84,2.23-4.26,4.47-4.71,7.06-1.21,6.99.41,13.65,4.59,19.53.43.61,1.05,1.34,1.71,1.49,3.65.86,7.35,1.03,11.48.41Zm27.71-42.69c-1.41-2.28-2.71-4.49-4.12-6.62-.93-1.4-2.34-1.77-4.02-1.93-4.35-.41-8.2.97-11.9,2.94-2.38,1.27-4.67,2.72-7,4.08,9.28-3.99,17.95-1.53,27.04,1.53Zm-25.55,41.49c-3.09-2.79-6.07-5.28-8.79-8.01-2-2-3.77-4.26-5.45-6.55-1.91-2.59-1.94-5.59-1.34-8.63-1.97,5.78-1.71,11.39,2.14,16.27,3.29,4.16,7.2,7.67,13.44,6.92Zm-6.79-39.14c-9.39,1.43-15.83,9.85-12.87,16.43,4.24-5.41,8.44-10.77,12.87-16.43Zm26.34,37.21c8.18-7.9,12.55-17.09,11.17-28.48-.2-1.61-.99-3.15-1.51-4.72-.18.06-.36.12-.53.18-.03.45-.12.9-.07,1.34.28,2.43.69,4.84.87,7.27.56,8-3.4,13.98-8.83,19.26-1,.97-2.13,1.81-3.27,2.78.78.85,1.43,1.56,2.18,2.38Zm-1.87-37.82c1.33,3,2.36,6.09,3.99,8.81,1.52,2.53,3.6,4.7,2.94,8.05,4.6-7.9,1.07-13.87-6.93-16.86Zm-17.05,41.78c-3.52.98-6.89,1.92-10.32,2.88,3.32,3.23,9.75,4.97,13.69,3.67-1.12-2.18-2.23-4.33-3.38-6.55Zm-21.59-20.39c-5.14,9.04-2.55,16.7,4.92,17.98-3.46-5.56-5.6-11.37-4.92-17.98Zm37.08,25.42c.42,4.61,2.05,8.69,5.07,12.09,1.36,1.52,2.97,2.85,4.65,4.02.5.35,1.6-.15,2.42-.26-.3-.83-.4-1.85-.94-2.45-2.16-2.39-4.58-4.54-6.66-6.98-1.69-1.98-3.03-4.26-4.53-6.41Zm12.5-33.7c-2.42,8.2-6.98,14.96-12.68,21.15,5.08,1.19,13.94-13.86,12.68-21.15Zm-27.34,28.4c1.09,2.06,2.16,4.16,3.33,6.21.16.28.82.53,1.11.42,1.7-.65,3.36-1.41,5.24-2.22-1.99-1.51-3.75-2.6-5.19-4.02-1.73-1.7-2.11-1.9-4.48-.38Zm13.19-45.16c.99.85,1.53,1.52,2.22,1.86,1.51.74,3.08,1.33,4.65,1.94,3.08,1.2,5.22,3.33,6.46,6.37.93-6.66-6.04-10.3-13.33-10.17Zm-8.94,44.8c2.04,1.33,3.86,2.7,5.85,3.74.98.51,2.71-1.18,2.4-2.21-.5-1.64-1.12-3.24-1.66-4.79-2.17,1.08-4.12,2.04-6.58,3.25Zm20.6,16.88l-10.27-14.8c-.22.15-.43.3-.65.46,3.04,5.19,6.14,10.33,10.92,14.34Zm-7.65-27.84c3.99-6.01,9.11-11.53,9.16-19.41-1.21,7.34-5.72,13.11-9.16,19.41Zm3.48-8.43c2.47-3.24,2.67-8.37,0-10.68v10.68Zm-36.21-5.72c-1.71,3.11-1.17,7.9,1.56,9.95-.49-3.09-1.05-6.71-1.56-9.95Zm11.29,25.79h-9.76c1.94,2.26,5.2,2.31,9.76,0Zm17.81-43.81c-1.92-2.17-6.08-2.31-9.37-.55,3.17.19,6.06.36,9.37.55Zm-8.98.53c-4.2-.52-7.31.73-7.49,2.91,2.55-.99,5.02-1.95,7.49-2.91Zm20.41,53.81c.17-.07.33-.15.5-.22.14-3.1-1.93-4.85-4.19-6.48,1.23,2.23,2.46,4.47,3.7,6.7Zm.27,3.37c.18-.12.37-.24.55-.36l-5.02-8.04c-.2.13-.4.26-.6.39,1.69,2.67,3.38,5.34,5.07,8.01Zm-18.51-60c-.05-.23-.09-.46-.14-.69l-7.23,1.86c.07.26.13.52.2.77l7.17-1.95Zm-7.84,43.02c.31-.75.51-1.25.75-1.85-1.38-.38-2.6-.72-3.83-1.07-.06.14-.11.28-.17.41,1,.77,2,1.54,3.25,2.51Z"/><path d="m67.02,162.39c.6-.7.35-1.26-.94-1.68-2.86-.94-5.69-1.98-8.53-2.97.08-.26.15-.52.23-.78,3.29.98,6.58,1.96,9.9,2.95,5.13-12.1,7.36-24.87,8.91-37.99-.38-.02-.99-.06-1.6-.09-3.69-.17-7.4-.15-11.06-.57-1.8-.2-3.5-1.23-5.26-1.83-.91-.31-1.85-.51-2.78-.75-.56-.15-1.13-.27-1.67-.83.28-.09.56-.26.84-.27,9.6-.17,19.19-.34,28.79-.47,1.26-.02,2.23-.1,3.16-1.31,1.4-1.83,3.75-1.98,5.94-2.28-1.98.93-3.97,1.85-5.95,2.78.09.19.18.39.27.58,8.22,1.24,15.72-.97,22.87-4.79-.39,1.29-.61,1.47-4.31,2.83-1.68.62-3.42,1.11-5.64,1.83,1.14.29,1.73.44,2.33.59,0,.15,0,.31,0,.46-.58.06-1.17.14-1.75.18-1.68.09-3.38.05-5.05.27-1.43.19-2.86.14-3.69,2.06-.74,1.7-2.96,1.27-4.43.89-1.91-.49-2.35.29-2.72,1.84-2.37,9.9-4.78,19.79-7.2,29.69-.63,2.56-1.32,5.1-1.98,7.61,2.27-2.47,4.49-4.9,6.72-7.33,1.27-1.38,1.22-1.99-.03-2.66,8.61-9.02,18.68-16.16,30.16-21.38-.17.22-.33.46-.53.66-.22.23-.48.42-.57.5.83,2.19,1.63,4.27,2.49,6.55.47-1.22.92-2.41,1.37-3.6.15.01.29.03.44.04v16.65c4.7-3.54,8.99-6.6,13.09-9.91,4.02-3.25,7.84-6.75,11.94-9.93-2.82,2.7-5.65,5.41-8.47,8.11.24.25.47.49.71.74,2.22-1.68,4.44-3.36,6.65-5.04.14.17.29.35.43.52-5.82,4.95-11.64,9.9-17.46,14.85.12.17.24.33.35.5,2.41-1.42,4.81-2.84,7.22-4.26.1.16.19.31.29.47-.37.26-.74.52-1.11.77-3.57,2.35-7.16,4.68-10.71,7.07-2.09,1.41-3.19,3.32-2.8,5.96.12.83-.06,1.7-.1,2.55-.19,0-.38,0-.57.01-.09-1.27-.19-2.54-.3-4.1-.59.51-1.04.83-1.4,1.22-2.16,2.34-4.32,4.67-6.42,7.05-.58.66-1.13,1.46-1.4,2.28-.7,2.1-.78,2.17-2.54,1.1.15-2,.2-3.86.48-5.68.17-1.13.99-2.21,1-3.32.02-1.51.48-3.03-.86-4.6-.86-1-.57-3.11-.54-4.71.08-4.14.31-8.28.47-12.42.02-.57,0-1.14,0-2.4-2.25,1.62-4.21,2.83-5.92,4.31-2.9,2.49-5.68,5.13-8.42,7.79-.38.37-.43,1.31-.31,1.92.15.73.66,1.38,1.07,2.18.48-.17.93-.32,1.44-.5-.47.97-.9,1.86-1.33,2.74.16.11.33.22.49.33,1.37-.84,2.75-1.68,4.12-2.51.1.17.19.35.29.52-.74.46-1.51.87-2.21,1.38-1.36.97-2.53,1.89-2.68,3.91-.15,2.03-2.08,3-3.87,3.35-2.2.43-4.5.43-6.75.58-.82.05-1.65,0-2.47,0-.05.22-.1.44-.15.66,3.28,1.03,6.56,2.07,9.83,3.1-.03.19-.06.38-.08.57-.73-.08-1.47-.14-2.2-.25-2.94-.46-5.87-1-8.82-1.35-.48-.06-1.22.63-1.54,1.16-.4.67-.49,1.53-.72,2.31-.16,0-.32-.02-.48-.03-.1-.7-.2-1.4-.33-2.33-2.27,1.94-4.37,1.02-6.56-.14-2.6-1.37-5.35-2.14-8.36-2.27-3.08-.13-6.13-.8-8.64-3.17,2.93-.57,5.88-.66,8.81-.25,2.98.42,5.92,1.11,9.16,1.74Zm44.24-31.04c-1.08.93-1.77,1.78-2.66,2.25-2.88,1.51-4.71,3.52-4.56,7.05.16,3.78.04,7.57.04,11.56,2.35-5.87,2.3-12.22,4.86-17.84-1.73,8.74-3,17.51-3.7,26.35.26.06.52.13.79.19.93-3.22,1.86-6.45,2.79-9.67.16.03.32.06.48.09.06.73.12,1.46.18,2.18.2.03.4.06.6.09.94-4.08,1.75-8.2,2.84-12.24.97-3.56-.43-6.57-1.65-10.02Zm-28.27-10.01c-.25-.09-.51-.19-.76-.28-.4.68-.93,1.31-1.17,2.05-.82,2.52-1.77,5.03-2.23,7.63-.94,5.29-1.59,10.63-2.36,15.96-.48,3.35-.94,6.71-1.41,10.06l.58.11c2.55-11.82,6.55-23.33,7.36-35.52Zm-4.77-1.66c.78.35,1.45.9,2.08.87,1.29-.07,2.56-.43,3.82-.75.53-.14,1.02-.47,1.53-.72-.05-.25-.1-.5-.16-.75-8.48.24-16.96.48-25.44.72-.03.17-.05.34-.08.52,1.34.36,2.67.94,4.03,1.05,3.48.28,6.98.37,10.47.51,1.54.06,3.16.24,3.74-1.45Zm-2.39,41.96c.63.12.84.24.97.18,4.08-1.75,8.18-3.48,12.21-5.34.46-.21.53-1.25.78-1.9-.15-.09-.3-.18-.45-.27-2.05,1.43-4.17,1.99-6.57.49-2.26,2.23-4.49,4.44-6.93,6.85Zm-3.59-8.51c4.45-10.12,4.47-21.41,8.64-31.64-1.56-.32-1.86.42-2.07,1.54-.73,3.94-1.54,7.87-2.33,11.79-.5,2.46-.6,5.12-1.64,7.33-1.67,3.53-2.03,7.25-2.6,10.98Zm38.16,1.36c4.35-2.58,5.22-5.92,3.27-12.32-1.09,4.1-2.17,8.17-3.27,12.32Zm-45.33,8.72c-4.56-2.07-9.32-2.2-14.14-1.74,4.5,2.38,9.42,1.26,14.14,1.74Zm8.35-1.58c.69-4.19,1.35-8.25,2.02-12.32-.14-.03-.28-.06-.42-.09-1.31,3.92-2.62,7.83-3.96,11.82.42.1,1.15.29,2.36.58Zm16.13-4.38c-3.05,1.51-6.04,2.99-9.16,4.53,5.51.74,9.29-1.12,9.16-4.53Zm-1.24-6.78c-.27-.02-.53-.05-.8-.07-1.23,1.31-2.45,2.61-3.82,4.07,2.32.75,4.67.37,5.1-.93.29-.87-.29-2.04-.48-3.07Zm27.49,3.3c.2.17.39.34.59.51,2.55-2.95,5.1-5.89,7.64-8.84-.16-.14-.32-.28-.48-.42-2.99,2.57-5.8,5.28-7.75,8.74Zm-3.94,6.35c-3.23.39-5.02,2.36-4.67,5.08,1.57-1.71,3.02-3.29,4.67-5.08Zm-45.59,5.2c2.87,2.25,4.8,2.07,5.88-.58-1.24.24-2.21.43-2.99.58h-2.89Zm2.35-5.03c.22.1.44.2.66.3,1.43-2.36,1.72-5.04,1.59-7.85-.75,2.52-1.5,5.04-2.25,7.56Zm37.05-26.62c-3.81,1.27-6.98,3.65-7.9,5.74,2.71-1.97,5.31-3.86,7.9-5.74Zm19.68,10.79c1.44-1.32,3.17-2.9,4.9-4.48-1.78,1.55-4.42,2.28-4.9,4.48Zm-47.09-22.15c-.23-.05-.45-.1-.68-.14-.57,2.68-1.14,5.37-1.71,8.05l.59.12c.6-2.68,1.2-5.36,1.8-8.03Zm9.02-2.36c.03.22.07.43.1.65,1.45-.06,3.07.68,4.1-1.43-1.4.26-2.8.52-4.2.78Zm27.34,23.22c.12,0,.25,0,.37,0v-5.53c-.12,0-.25,0-.37,0v5.53Z"/><path d="m220.03,103.94c4.22-6.26,8.43-12.52,12.65-18.78-.15-.12-.31-.24-.46-.36-.71.1-1.41.21-2.12.31-.12-.13-.24-.26-.35-.39,3.36-4.62,8.26-8.46,8.06-15.4-.82.77-1.54,1.2-1.92,1.84-2.13,3.63-4.22,7.29-6.22,10.99-2.47,4.56-4.84,9.18-7.28,13.75-.31.58-.76,1.07-1.15,1.61-.18-.1-.37-.21-.55-.31.69-1.39,1.48-2.74,2.02-4.19.5-1.34.79-2.77,1.08-4.19.37-1.84.46-3.75.97-5.55,2.45-8.61,4.88-17.22,7.57-25.75,1.05-3.31,2.68-6.45,4.25-9.57.53-1.04,1.69-1.76,2.57-2.63.17.1.35.21.52.31v3.93c.22.02.44.04.66.06.27-1.83.55-3.66.82-5.49-.19-.12-.39-.24-.58-.35-2.27,1.22-5.26,1.28-6.38,4.39-.14.39-.59.68-.93.97-7.27,6.27-14.52,12.56-21.82,18.8-3.7,3.16-7.77,5.95-11.14,9.43-3.17,3.28-5.74,7.16-8.39,10.91-2.58,3.65-4.88,7.49-7.4,11.19-.56.82-1.47,1.4-2.38,1.9,5.63-5.82,8.4-13.5,13.11-19.97-2.88,2.13-5.76,4.26-8.65,6.39-.18-.17-.37-.34-.55-.51.23-.44.38-.96.71-1.32,3.3-3.65,6.4-7.54,10.01-10.86,11.95-11.02,24.93-20.76,38.6-29.56,1.3-.84,2.73-1.5,4.16-2.1,1.35-.57,2.42-.29,2.14,1.47-.32,2.03-.58,4.12-1.29,6.03-3.66,9.84-7.46,19.64-11.21,29.45-.11.28-.18.57.04.98,1.4-2.6,2.73-5.24,4.23-7.78.89-1.49,2.01-2.86,3.12-4.19.32-.39.99-.48,1.51-.7.17.52.55,1.08.46,1.55-.36,2.01-.87,3.99-1.39,6.28,2.58-2.08,4.9-4.11,7.38-5.93,4.92-3.6,9.86-7.18,14.92-10.58,3.42-2.3,7.07-4.27,10.62-6.38.3-.18.67-.23,1.11-.37-6.62,6.14-13.12,12.18-19.62,18.22.12.15.24.29.37.44,8.08-6.15,16.15-12.3,24.23-18.44,8.02-6.1,16.13-12.11,22.51-20.08.14.13.29.26.43.38-1.12,1.35-2.08,2.88-3.38,4.03-5.29,4.69-10.48,9.51-16.07,13.83-14.28,11.03-28.76,21.79-43.12,32.7-3.67,2.79-6.33,6.47-8.77,10.33-1.63,2.57-3.4,5.06-5.18,7.54-.56.78-1.32,1.42-1.99,2.13-.17-.14-.35-.28-.52-.42Zm19.25-57.05c-.24-.08-.49-.17-.73-.25-.49.57-1.15,1.07-1.45,1.72-1.5,3.29-3.21,6.54-4.29,9.97-2.58,8.16-4.86,16.41-7.24,24.63-.33,1.14-.55,2.31-.82,3.46.18.05.36.11.54.16,1.11-2.94,2.23-5.89,3.34-8.83,3.27-8.68,6.58-17.34,9.77-26.05.55-1.51.6-3.21.88-4.83Zm18.36,15.65c-.6.08-.82.05-.94.14-6.69,5.09-13.4,10.15-20.03,15.32-.81.63-1.16,1.86-1.72,2.81.15.1.3.21.44.31,7.31-6.1,14.62-12.21,22.24-18.57Zm-32.8-7.62c-.16-.17-.32-.33-.49-.5-3.77,1.89-18.95,15.4-20.13,18.4,6.87-5.97,13.75-11.94,20.62-17.91Zm-29.38,23.2c4.01-1.85,7.47-5.15,8.45-7.85-2.82,2.62-5.64,5.23-8.45,7.85Zm-7.4,7.32c.11.13.21.25.32.38,2.43-1.94,4.85-3.88,7.48-5.98-4.04.29-5.98,2.86-7.8,5.6Zm45.04-.74c.12.14.24.28.36.41,3.16-2.83,6.31-5.66,9.47-8.49-.15-.16-.29-.32-.44-.47-3.04,2.95-7,4.9-9.4,8.55Zm12.32-9.89c.17.19.34.39.51.58,3.5-3.09,6.99-6.18,10.49-9.27-.11-.13-.23-.26-.34-.39-3.55,3.03-7.1,6.05-10.66,9.08Zm-15.03-23.92c-.16-.18-.32-.35-.48-.53-1.25,1.16-2.5,2.33-3.75,3.49.14.16.29.31.43.47,1.27-1.14,2.53-2.29,3.8-3.43Z"/><path d="m243.54,167.72c-1.35.9-2.6,2.07-4.08,2.67-6.22,2.53-11.36,6.67-16.53,10.78-1.12.89-2.23,1.82-3.48,2.49-1.68.9-2.31,2.04-1.8,3.92,1.12,4.11,2.2,8.23,3.19,12.37.55,2.3.86,4.66.89,7.15-1.89-5.17-3.78-10.33-5.68-15.5-.33.09-.67.18-1,.27.66,3.34,1.18,6.71,2.01,10.01.69,2.76,1.78,5.41,2.62,8.14.47,1.53-.34,2.21-2.86,1.68,2.77-.21,2.23-1.4,1.76-2.7-.8-2.21-1.47-4.47-2.2-6.7-.2.03-.41.06-.61.09.19,3.47.38,6.95.57,10.42-.17.03-.34.05-.52.08-1.39-5.45-.69-11.41-3.96-16.4.22-.09.45-.19.67-.28.71,1.53,1.42,3.06,2.13,4.59.13-.02.26-.05.38-.07-.44-4.23-.88-8.47-1.35-13.05-11.91,6.27-23.38,12.3-35.34,18.6.92-.81,1.43-1.41,2.07-1.79,2.05-1.24,4.11-2.47,6.23-3.58,8.49-4.47,17.02-8.9,25.52-13.36.45-.24.81-.65,1.02-1.32-9.98,5.19-19.36,11.61-30.61,13.96.84-1.91,2.42-2.99,4.01-3.98,4.95-3.09,9.9-6.21,14.97-9.1,4.17-2.37,6.84-5.73,7.62-10.43.21-1.3-.24-2.76-.56-4.1-.29-1.19-.9-2.3-1.2-3.49-.12-.5.19-1.1.75-1.61-.31-.84-.62-1.67-.94-2.51l.73-.34c1.07,1.91,2.15,3.82,3.45,6.15-.42-2.04-.58-3.74-1.17-5.27-.24-.62-1.38-1.12-2.19-1.26-5.05-.87-10.17-1.4-15.16-2.49-4.35-.95-8.56-2.5-12.83-3.8-.15-.05-.25-.26-.29-.81,2.18.44,4.34,1.07,6.55,1.28,2.36.22,4.76.05,7.1.05-5.21-3.74-11.9-5.32-16.81-9.85,6.29,3.36,12.58,6.71,18.86,10.07-.09.27-.17.54-.26.81-2.75-.15-5.5-.3-8.26-.45l-.08.55c7.39,2.38,15.16,2.73,23.28,4.26-.72-1.27-1.21-2.13-1.86-3.28,1.46,0,1.6,1.08,1.98,1.91.37.82.8,1.61,1.01,2.02.38,5.1,1.37,9.77,2.61,14.39.26-.02.52-.03.78-.05-.17-2.64-.33-5.27-.5-7.91.22-.03.43-.07.65-.1.42,2.32.84,4.64,1.32,7.31,2.15-1.28,4.07-2.42,5.99-3.58,1.1-.66,1.98-1.92,3.59-1.02.26.14.9-.4,1.36-.61,4.18-1.9,8.33-3.88,12.57-5.66,1.05-.44,2.36-.27,3.56-.39.12.28.24.55.36.83Zm-59.21,31.56c.68-.16,1.4-.22,2.03-.49,3.98-1.7,7.98-3.35,11.88-5.23,1.2-.58,2.09-1.82,3.12-2.75-3.43,1.3-6.59,2.88-9.76,4.45-.46.23-.99.6-1.43.53-2.88-.44-4.13,1.86-5.84,3.48Zm50.93-27.54c2.25-1.19,4.49-2.38,6.74-3.56-.12-.29-.25-.57-.37-.86-2.44.83-4.88,1.66-7.31,2.49.37.75.59,1.19.95,1.93Zm-7.76,5.03c-3.57,1.01-10.06,5.82-10.33,7.8,3.65-2.76,6.99-5.28,10.33-7.8Zm-.2-1.66c-.12-.21-.24-.42-.36-.63-3.65,1.75-7.25,3.6-10.49,6.09.12.21.24.42.36.63,3.5-2.03,6.99-4.06,10.49-6.09Zm-23.96,14.62c.15.2.31.39.46.59,2.8-1.6,5.61-3.19,8.39-4.83.31-.18.43-.68.63-1.03-.19-.2-.38-.39-.57-.59-2.97,1.95-5.94,3.9-8.91,5.86Zm6.69-12.68c-.73,1.88-1.4,3.58-2.13,5.44,4.07-1.61,4.18-1.88,2.13-5.44Zm-13.31,14.33c.12.19.25.38.37.57l7.49-4.78c-.14-.21-.27-.41-.41-.62-2.48,1.61-4.97,3.22-7.45,4.83Zm15.19-8.56c-.09-.17-.18-.34-.27-.51-1.75,1.44-4.29,1.67-5.39,4.08,1.89-1.19,3.78-2.38,5.67-3.57Z"/><path d="m126.4,163.46c-.8.47-1.61.94-2.41,1.41-.14-.09-.28-.18-.43-.26.72-1.02,1.3-2.21,2.19-3.05,6.81-6.38,13.69-12.69,20.53-19.04.59-.55,1.03-1.27,1.54-1.91-.13-.14-.27-.28-.4-.42.67-.08,1.34-.16,2.12-.26-1.85,4.25-4.76,7.57-7.92,10.55-7.19,6.75-14.61,13.24-21.94,19.84-.95.85-1.93,1.68-3.32,2.89,3.27,0,6.03.25,8.73-.05,7.26-.8,14.21-2.94,21.03-5.46,3.94-1.45,7.37-3.92,10.19-7.01,5.38-5.9,4.63-13.34-.39-19.19-3.83-4.46-8.75-4.85-14.4-4.58.82.96,1.38,1.62,1.95,2.28-.06.08-.12.15-.18.23-1.31-.81-2.63-1.62-4.1-2.53,3.99-1.54,7.8-.31,11.41-.17.26-.44.56-1.16.71-1.13,2.25.47,4.65.7,6.69,1.66,4.02,1.89,5.24,5.71,5.59,9.79.63,7.37-3.11,12.84-8.17,17.5-5.42,4.99-11.7,8.61-18.92,10.35-1.68.41-3.46.61-5.2.6-5.58-.04-11.15-.22-16.73-.34-1.01-.02-2.03,0-3.43,0,3.43-3.19,6.46-6.02,9.49-8.84l.45.47c-1.51,1.4-3.02,2.79-4.53,4.19.22.23.44.47.66.7,3.06-2.76,6.12-5.52,9.18-8.28.59-.36,1.25-.65,1.74-1.11,4.13-3.83,8.28-7.63,12.3-11.56,2.08-2.03,3.91-4.31,5.86-6.48-2.28,2.37-4.74,4.52-7.11,6.78-4.29,4.1-8.51,8.26-12.76,12.4Zm27.38-26.47c3.04,4.28,6,8.44,8.99,12.65,1.01-7.03-3.98-13.56-8.99-12.65Zm-25.96,37.56c7.93,1.66,20.4-4.02,25.39-9.51-7.64,4.87-16.14,7.44-25.39,9.51Zm32.48-26.72c.68,4.22.52,8.08-1.91,11.57,3.63-3.54,4.65-9.29,1.91-11.57Zm-20.59,1.21c-.04-.06-.07-.11-.11-.17l-4.46,5.39s-.08-.08-.11-.12c1.56-1.7,3.12-3.41,4.68-5.11Z"/><path d="m113.45,254.51c-1.01.39-1.87.72-2.76,1.07-3.75-1.97-7.89-2.72-12.2-1.91-4.02.76-7.62,2.67-10.69,5.34-2.88,2.51-4.06,6.73.83,10.3,1.2.88,2.43,1.73,3.67,2.56,5.32,3.54,5.28,8.22,1.28,13.2-5.61,6.99-13.3,7.31-20.98,7.95-3.82.32-6.65-2.6-6.6-6.07,0-.62.12-1.35.47-1.83,1.91-2.64,4.44-4.58,7.27-6.19-2.17,2.99-6.63,4.14-7.22,9.09,3.56-2.03,6.72-.96,9.9-.44,3.53.58,7.07,1.09,10.55-.3.6-.24,1.19-.53,1.72-.89,2.73-1.85,2.8-2.74.51-5.07-3.1-3.15-6.17-6.33-7.37-10.8-.1-.37-.81-.76-1.28-.81-1.16-.12-2.33-.05-3.5-.05-1.35,0-1.56-.72-1.07-1.78.32-.71.66-1.44,1.15-2.03,3.42-4.07,6.79-8.17,10.35-12.12,2.59-2.88,5.89-4.42,9.88-4.16.51.03,1.11-.01,1.52.22,2.96,1.67,6.28,1.39,9.46,1.76,2.95.34,4.24,1,5.12,2.94Zm-22.04,28.1c.25-.24.43-.34.52-.49,1.41-2.4,2.24-4.88.62-7.49-1.68-2.73-7.03-5.22-10.01-4.68,1.11,5.55,5.32,8.85,8.87,12.67Zm8.03-31.93c-.73-.14-1.46-.36-2.2-.41-4.19-.27-7.4,1.7-10.02,4.69-3.21,3.65-6.31,7.39-9.4,11.15-.61.75-.94,1.73-1.48,2.75h5.11c1.54-9.14,8.99-16.52,17.98-18.18Zm-11.87,37.55c-1.86.22-3.27.59-4.65.5-3.28-.23-6.54-.76-9.81-1-1.57-.12-3.2-.02-4.75.27-1.43.26-1.35,1.22-.39,2.06.47.41,1.1.8,1.7.87,2.74.31,5.5.8,8.22.65,3.34-.19,6.56-1.2,9.68-3.34Zm4.75-15.31c2.65,3.13,2.03,6.3.28,9.53-.29.53-.2,1.26-.29,1.9,2.35-1.05,3.67-2.69,3.64-4.88-.04-2.7-.96-5.14-3.63-6.56Zm-7.68-10.26c-1.68,1.53-2.39,3.3-2.24,5.39.02.31.32.8.57.86,1.67.4,3.37.7,5.27,1.08-2.08-2.1-4.32-3.95-3.59-7.32Zm18.22-10.09c-4.5-2.01-11.83.76-13.59,4.32,4.3-2.48,8.54-4.66,13.59-4.32Zm9.19,1.77c.07-.19.15-.37.22-.56-1.88-1.8-4.35-1.4-6.76-1.29,2.18.62,4.36,1.23,6.53,1.85Z"/><path d="m184.14,81.35c-1.11.65-1.46.13-1.23-.9.42-1.83.92-3.64,1.44-5.44.55-1.92,1.15-3.82,1.41-5.87-1.22,2.3-2.45,4.59-3.67,6.89-.27-.08-.54-.16-.81-.23.09-1.28-.1-2.66.31-3.83,1.99-5.67,4.07-11.32,6.25-16.92,1.47-3.8,3.16-7.51,4.81-11.4,2.39-1.18,5.02-2.47,8.27-4.08-.11,1.8.12,3.3-.32,4.56-4.1,11.73-7.65,23.7-13.94,34.53-1.58,2.71-3.69,5.14-5.76,7.52-.54.62-1.89.81-2.81.7-.48-.06-.84-1.18-1.48-2.16,1.24.71,2.07,1.59,2.78,1.49.82-.11,1.63-.97,2.27-1.67.9-1,1.63-2.15,2.43-3.24.75-1.12,1.59-2.2,2.24-3.38,5.99-10.7,9.54-22.38,13.59-33.86.34-.96.29-2.07.43-3.1-.27-.1-.53-.2-.8-.3-.7,1.14-1.63,2.2-2.07,3.43-3.69,10.37-7.27,20.77-10.93,31.15-.73,2.06-1.6,4.08-2.41,6.11Zm3.21-16.23c.1.01.2.02.3.03l9.15-22.82c-2.49,1.08-3.58,3.03-4.22,5.33-.6,2.19-1.23,4.37-1.88,6.54-1.1,3.64-2.23,7.28-3.35,10.92Zm6.3-11.42c-.27-.09-.53-.18-.8-.28-3.01,8.25-6.03,16.49-9.04,24.74.31.11.63.23.94.34,2.97-8.27,5.93-16.53,8.9-24.8Zm-5.42,6.97c-3.34,1.78-6.76,10.24-5.68,13.73,2-4.83,3.84-9.28,5.68-13.73Zm1.47-6.57c-.18-.1-.37-.2-.55-.3-.84,1.89-1.68,3.79-2.52,5.68.22.09.43.19.65.28.81-1.89,1.62-3.77,2.43-5.66Z"/><path d="m22.43,64.4l.82,1.4c.08-.03.17-.06.25-.09-.21-1.1-.53-2.2-.59-3.31-.06-.95.17-1.91.53-2.83-.16,4.96,1.65,9.34,3.64,13.64,3.79,8.18,7.66,16.31,11.52,24.46.76,1.6,1.6,3.15,2.7,4.58-.47-1.13-.94-2.25-1.42-3.38,2.58,2.68,2.93,4.65,1.3,5.55.89,2.5,1.97,4.96,2.59,7.52.51,2.11.6,4.34.62,6.53,0,.75-.59,1.96-1.17,2.15-.57.19-1.71-.47-2.19-1.09-.94-1.21-1.84-2.57-2.33-4.01-2.66-7.86-5.16-15.77-7.76-23.64-2.05-6.21-4.13-12.41-6.23-18.6-.79-2.33-1.71-4.62-2.52-6.95-.2-.56-.21-1.19-.31-1.79.18-.05.36-.09.54-.14Zm8.41,22.71c-.21.1-.42.19-.62.29,2.57,8.21,5.08,16.43,7.77,24.6.74,2.25,1.96,4.36,3.08,6.47.38.71,1.17,1.2,2.12,2.14.95-3.17.75-5.73.05-8.32-2.49-9.22-8.04-16.9-12.4-25.17Zm5.44,8.29c.15-.09.3-.18.45-.26-2.95-6.33-5.9-12.66-8.86-18.99-.17.08-.34.16-.51.24,1.89,6.85,5.42,12.92,8.92,19.02Z"/><path d="m145.7,190.31c.62-.84.85-1.48,1.3-1.72,2.96-1.59,4.2-4.73,6.4-6.98,3.23-3.31,6.84-6.24,10.16-9.46,1.62-1.57,2.98-3.42,4.39-5.19.17-.22.01-.85-.17-1.18-.79-1.44-.18-1.71,1.2-1.91,1.04-.15,2.25-.62,2.95-1.36,2.24-2.37,4.28-4.94,6.39-7.43-.11-.15-.22-.29-.33-.44-1.2.47-2.4.94-3.6,1.41-.07-.18-.14-.37-.21-.55,1.75-.73,3.5-1.45,5.25-2.18.16.2.33.4.49.6-1.27,1.63-2.48,3.31-3.81,4.89-1.91,2.28-3.87,4.52-5.88,6.72-.86.94-.71,1.68.29,2.17,5.71,2.78,11.51,4.09,17.44.58,1.51-.89,2.46-2,.97-3.89,1.73,1.21,1.9,2.54.46,3.64-1.11.85-2.41,1.58-3.75,1.98-3.22.97-6.34,3.18-9.91,1.52-2.41-1.12-4.69-2.53-7.36-3.99-6.27,7.56-12.75,15.52-20.85,22,1.02-.13,2.06-.14,3.04-.4,5.79-1.52,11.72-1.65,17.6-1.23,3.38.24,6.68,1.46,10.03,2.18.46.1.99-.13,1.48-.21,1.05.88,2.18,1.83,3.32,2.79-.04.15-.08.29-.12.44-.7-.23-1.48-.32-2.07-.7-3.93-2.53-8.34-3.54-12.87-3.86-6.77-.48-13.47.26-20.09,1.75-.56.13-1.17.02-2.15.02Z"/></g></svg>