<?xml version="1.0" encoding="UTF-8"?><svg id="Layer_2" xmlns="http://www.w3.org/2000/svg" viewBox="0 0 247.69 177.19"><g id="Layer_1-2"><path d="m192.83,117.86c.82.05,1.73.11,2.63.16.07.19.14.38.21.57-.82.43-1.61.98-2.47,1.27-3.52,1.18-6.76,2.58-9.67,5.19-4.62,4.15-10.54,4.72-16.49,3.92-1.71-.23-3.31-1.3-5.13-2.05.23-.41.51-.91.82-1.47-.26-.08-.46-.2-.64-.18-6.15.73-12.36,1.13-18.41,2.34-3.55.71-6.87,2.64-10.24,4.16-.47.21-.74,1.18-.85,1.84-.5,3-.82,6.03-1.41,9.01-.23,1.19-.51,3.09-2.62,1.53-.18-.13-.85.4-1.74.84.26-2.7.48-5.04.75-7.91-2.04,3.2-3.84,6.01-6,9.41.23-1.51.27-2.52.54-3.47,1.63-5.58,3.65-11.08,4.86-16.75.9-4.21.8-8.64,1.05-12.98.02-.44-.58-1.1-1.06-1.36-3.23-1.82-3.6-2.79-2.09-6.09-1.98-1.01-3.97-2.01-6.21-3.15-3.12,5.25-7.09,10.38-9.39,16.18-3.32,8.37-8.8,15.54-12.13,23.85-1.52,3.78-3.33,7.44-5.06,11.14-.4.85-.99,1.61-1.49,2.42-.23-.1-.46-.2-.69-.29.22-1.13.45-2.26.67-3.41-4.41,8.22-8.81,16.42-13.21,24.63-.3-.11-.61-.22-.91-.33.28-1.03.39-2.15.87-3.07,1.94-3.67,3.97-7.29,6-10.91,2.54-4.5,5.98-8.72,7.44-13.55,1.6-5.3,5.12-9.58,6.48-14.84.3-1.14.14-2.42.12-3.63-.04-2.7-.19-5.39-.17-8.09.04-5.34-2.44-9.99-4-14.89-2.03-6.38-4.46-12.64-6.43-19.04-.73-2.38-.7-5.01-.93-7.53-.04-.48.37-1,.58-1.5.55.28,1.25.43,1.62.87.44.53.76,1.27.87,1.97.79,5.1,1.52,10.21,2.27,15.31.15,1,.13,2.05.45,2.99,1.52,4.54,3.12,9.05,4.93,13.52.48-7.9-.61-15.62-2.74-23.69.81.5,1.18.73,1.77,1.09v-5c.21-.05.41-.1.62-.15,1.55,2.17,1.36,5.01,2.32,7.41,1,2.49,1.76,5.09,2.65,7.63.91,2.61,2.01,5.17,2.75,7.82.72,2.57,1.11,5.24,1.78,8.56,5.3-12.62,10.11-24.78,20.91-33.08-.83,6.42-5.95,10.75-7.85,16.2,4.39,1.25,8.68,2.47,13.16,3.75-.06.16.16-.15.15-.45-.18-6.11-.21-12.23-.65-18.32-.25-3.56-.94-3.82-4.58-4.02-2.02-.12-4.02-.48-6.02-.73.03-.23.07-.45.1-.68,3.05.33,6.09.66,9.41,1.02.05-.85.19-1.55.11-2.23-.27-2.31,1.01-3.25,3.03-3.32,3.47-.12,6.95-.03,10.42-.13,1.81-.05,3.62-.23,5.41-.49,6.41-.93,12.8-1.93,19.21-2.86.85-.12,1.76-.06,2.62.06,4.16.6,5.43.36,9.62-1.97-2.69-2.1-5.35-4.18-8.07-6.32-1.38,2.52-2.78,5.11-4.19,7.69-.32-.14-.64-.29-.95-.43.63-2.11,1.08-4.29,1.92-6.32,1-2.43.6-4.29-1.04-6.35-1.74-2.18-2.98-4.76-4.85-7.85,2.23,0,3.78,0,5.32,0,4.87-.02,4.9,0,6.41-4.53.9-2.7,1.7-5.42,2.47-8.16.14-.5-.09-1.11-.17-1.94,2.75-5.68,5.95-11.59,5.8-19.14,1.76.48,3.64.98,5.73,1.55.66-1.71,1.4-3.61,2.14-5.51.18.03.36.05.54.08.1.42.4.92.27,1.26-1.36,3.51-.43,6.72.4,10.26,1.39,5.91,1.67,12.07,2.46,18.12.11.86.5,1.69.4,2.4-.5,6.7-.99,13.39-1.5,20.32,3.23-.19,6.19-.36,9.15-.53,0-.25,0-.5,0-.75-.23-.1-.48-.33-.69-.29-3.04.53-3.08.31-2.46-2.61,1.69-7.91,3.12-15.87,4.79-23.78,1.19-5.66,2.03-11.33,1.67-17.13-.05-.74.07-1.5.12-2.25.26,0,.51-.02.77-.03.07,1.55.14,3.1.21,4.65l.28.07c.18-.49.43-.97.54-1.48.78-3.77,3.46-6.91,3.31-11.04-.12-3.19.32-6.39.53-9.59.03-.4.16-.8.75-1.28.12.6.38,1.21.34,1.8-.24,3.71-.58,7.41-.81,11.12-.21,3.49-.63,7-.43,10.47.57,9.77,1.44,19.52,2.15,29.28.12,1.7.84,2.05,2.41,1.63,5.41-1.44,10.84-2.8,16.27-4.17,1.76-.44,3.54-.83,5.32-1.17.41-.08.88.13,1.84.3-2.45.99-4.38,1.77-6.32,2.55.07.19.15.37.22.56,2.96-1.05,5.93-2.09,8.89-3.16.61-.22,1.16-.62,1.76-.88,2.41-1.05,2.8-1.81,2.15-4.25,1.72,1.21,1.42,3.43-.75,4.48-2.02.97-4.19,1.61-6.24,2.54-1.33.6-2.55,1.45-3.82,2.18-.31.18-.61.38-.93.5-3.07,1.11-6.19,2.08-9.19,3.34-3.08,1.3-6.19,2.24-9.54,1.9-3.58-.36-6.52,1.33-9.46,2.88-.7.37-.96,1.57-1.64,2.78,4.14-.35,7.09,1.15,9.94,2.89-.07.21-.15.42-.22.63-1.4-.47-2.77-1.09-4.21-1.35-1.48-.27-3.03-.18-4.67-.25,1.68.41,3.22.78,4.76,1.15v.65c-.66.24-1.31.49-1.97.73-.02.13-.03.27-.05.4,1.97.31,3.93.65,5.9.91,1.95.25,3.92.33,5.84.68.49.09,2.19-.25,1.28,1.4.58.22,1.16.62,1.75.64,1.87.08,3.74.03,5.61.03-.02.31-.03.63-.05.94-2.41-.16-4.83-.22-7.22-.51-2.45-.3-4.86-.98-7.31-1.24-2.53-.26-5.1-.11-7.64-.33-2.41-.21-4.81-.67-7.21-1.02l-.11.55c.53.26,1.06.53,1.59.79-.02.19-.04.38-.06.58-1.43,0-2.95.31-4.27-.06-2.88-.81-5.29.13-7.32,1.84-2.8,2.37-5.31,5.08-7.99,7.68,5.19,4.15,10.79,6.35,16.39,8.53,1.02.4,1.98.93,2.99,1.35,2.08.86,2.98,2.37,2.91,4.62-.09,2.89-.1,5.79,0,8.67.11,3.03-1.5,4.9-3.94,6.23-1.34.73-2.8,1.23-4.16,1.93-1.58.82-3.67,1.31-2.76,4.09Zm-52.48-6.49c4.56,2.76,8.89,5.41,13.26,7.99.59.35,1.4.5,2.1.46,3.55-.23,7.09-.55,10.95-.86-1.31-1.12-2.59-2.22-3.88-3.32.14-.17.29-.34.43-.5,1.22,1.03,2.62,1.91,3.6,3.13.98,1.22,1.83,1.87,3.47,1.38,1.74-.51,3.54-.96,5.34-1.08,4.5-.32,7.8-2.5,10.33-6.09.42-.59.85-1.2,1.38-1.69,1.27-1.16,1.48-2.58.7-3.96-1.24-2.21-2.48-4.47-4.09-6.4-2.89-3.48-6.16-6.6-10.62-8.05-2.08-.67-2.6-2.09-2.26-4.08.1-.6.21-1.68-.03-1.79-2.18-1.01-1.76-2.87-1.45-5.03-3.83,0-7.44-.17-11.03.05-3.47.21-6.91.99-10.39,1.2-3.71.22-7.43,0-11.15.1-.66.02-1.78.66-1.86,1.15-.53,3.43-.84,6.89-1.21,10.22,2.75.54,4.04-.57,4.46-2.96.12-.7.58-1.35.88-2.02.18.05.37.09.55.14,0,.67.07,1.34-.01,2-.24,1.95-.62,3.89-.76,5.85-.04.61.37,1.67.82,1.82,4.12,1.41,8.33,2.21,12.61.66.65-.23,1.17-.8,1.76-1.21-.07-.2-.14-.4-.21-.6-4.29-.05-8.61,1.26-12.9-.01,3.37-2.14,7.22-1.79,10.82-2-1.78-2.53-3.46-4.91-5.13-7.29.23-.15.45-.31.68-.46.61.96,1.3,1.88,1.83,2.88,1.24,2.36,3.03,4.37,5.59,4.82,2.72.48,5.6.22,8.39.1,2.51-.1,5.02-.45,6.93-.63-1.01.93-2.34,2.19-3.72,3.4-.32.28-.76.44-1.17.57-2.38.78-4.78,1.54-7.25,2.33,1.5.08,2.92.15,4.35.22.03.25.06.5.09.75-1.91.52-3.83,1.05-5.74,1.57-3.35.92-6.82,1.56-10.02,2.85-2.16.87-3.95,2.66-6.41,4.4Zm47.51-63.07c-2.59.68-5.34,1.35-8.04,2.17-.59.18-1.16.87-1.46,1.46-1.63,3.33-3.24,6.68-4.7,10.1-.27.64-.09,1.95.39,2.37,2.25,1.94,4.65,3.71,7.06,5.47.41.3,1.11.42,1.61.32,4.43-.9,5.14-1.8,5.13-6.2,0-5.16,0-10.32,0-15.68Zm-35.15,71.88c-4.31-2.85-8.27-5.67-12.47-8.07-.87-.5-3.6.27-3.84,1-1.17,3.55-1.79,7.28-2.65,11.12h3.33c-.43-.5-.76-.89-1.09-1.28.02-.19.05-.39.07-.58,5.95,2.49,10.9-1.31,16.65-2.2Zm25.27-27.21c-.1.25-.2.51-.29.76,5.28,3.64,9.41,8.2,11.81,14.52,1.21-1.52,2.29-2.95,3.46-4.31,1.62-1.87,2.1-3.81.54-5.52-1.57-1.72-3.52-3.53-5.65-4.17-3.13-.95-6.56-.9-9.87-1.27Zm-75.09,30.21c1.54-1.79,2.47-3.75,1.83-6.04-1.93-6.85-3.94-13.68-5.99-20.5-.57-1.91-1.38-3.75-2.08-5.63-.2.04-.41.08-.61.12.56,3.5,1.15,6.99,1.68,10.49.92,6.03,1.91,12.05,2.66,18.11.22,1.76.86,2.81,2.51,3.45Zm92.49-22.1c2.97-2.25,3.03-4.1.32-6.36-.73-.6-1.51-1.15-2.16-1.83-3.03-3.14-6.81-4.3-11.05-4.3-2.35,0-4.7,0-7.06,0-.36,3.07.31,3.86,3.39,3.87.95,0,1.9-.06,2.84.02,6.07.47,11.9,1.35,13.73,8.6Zm-60.2-19.04c8.04-.3,15.75.77,23.45-1.43-7.03-3.11-14.25-.61-21.21-1.86,1.34-.43,2.69-.87,4.51-1.46-2.73-1.3-4.97-.81-7.24-.4-3.75.69-4,1.02-3.11,4.96h2.72c.1-1.41.19-2.69.28-3.96.2,0,.4.01.6.02v4.13Zm70.97-21.02c2.43-1.38,4.28-2.5,6.2-3.49,1.22-.63,1.65-1.44,1.33-2.81-.38-1.62-.68-3.28-.86-4.94-.54-4.89-1.01-9.79-1.39-13.59-1.57,7.37-3.36,15.77-5.29,24.83Zm-97.81,53.33c6.48-8.82,12.7-17.81,17.35-27.77-8.66,7.47-13.18,17.51-17.35,27.77Zm80.91-47.03c3.6-.53,3.64-.53,3.93-3.87.35-3.97.67-7.95.93-11.92.1-1.46.02-2.94.02-4.37-2.17-.16-2.81.71-2.66,2.46.12,1.44.11,2.91,0,4.35-.17,2.04-.49,4.06-.74,6.09-.23.02-.46.04-.69.07-.24-.56-.48-1.12-.78-1.82v9.02Zm-39.21,8.93l-.03.84c1.73.1,3.45.26,5.18.28,3.97.05,7.94-.06,11.91.09,2.1.08,5.68-1.39,6.83-3.52-8.27-.57-16.12.38-23.89,2.32Zm26.53-30.61c1.72-.41,3.34.7,4.12-1.31,1.74-4.54,3.45-9.1,5.14-13.66.23-.62.24-1.31.35-1.97-1.17,2.84-2.7,5.17-5.67,6.32-.42.16-.88.63-1.02,1.05-.97,3.02-1.86,6.06-2.92,9.57Zm14.75-.96h2.7c.49-7.66-1.39-19.64-3.29-21.35-1.99,7.13,1.87,14.01.58,21.35Zm-4.74-4.73c-.56.86-1.23,1.89-1.9,2.93,1.05.58,2.09,1.15,3.14,1.73.22-.18.44-.36.65-.54-.5-3.95-1-7.89-1.5-11.84-.2,0-.4,0-.6.01-1.65,4.17-3.3,8.34-5.06,12.77,1.42-.09,2.47-.15,3.63-.22-2-2.71-1.28-4.36,1.64-4.85Zm-21.77,12.06c2.05,3.3,3.74,6.02,5.75,9.25,1.16-3.5,2.1-6.35,3.06-9.25h-8.81Zm42.73-20.19c-.09.05-.18.09-.27.14-1.88,9.96-3.76,19.92-5.64,29.88.17.05.35.09.52.14.43-1.21,1.03-2.4,1.27-3.65,1.54-8,3.02-16.01,4.45-24.02.14-.78-.21-1.65-.33-2.48Zm-23.24,91.16c-6.15,1.68-11.96,3.26-17.59,4.8,4.86,1.9,13.98.04,17.59-4.8Zm8.7-9.65c.28.2.57.41.85.61,2.35-3.09,4.87-6.06,7-9.29,1.85-2.79,1.1-5-1.98-6.95,1.37,6.48-2.76,10.87-5.88,15.63Zm-3.19-40.45c-5.84.48-9.38,4.39-13.05,8.27.99.19,1.93.14,2.59-.31,1.73-1.18,3.34-2.56,5.01-3.84,1.81-1.38,3.63-2.75,5.45-4.12Zm-40.21,30.2c-3.37.23-6.74.57-10.11.65-1.89.04-2.23.84-1.81,2.66,4.25-.18,8.58.25,11.93-3.31Zm44.98.71c-4.15,3.01-5.63,6.23-4.33,9.16,4.02-2.42,5.07-4.57,4.33-9.16Zm7.88-3.27c1.29-5.74-.72-8.54-6.29-8.67,2.17,2.99,4.09,5.63,6.29,8.67Zm-30.63-38.12c.24,0,.48.01.72.02l5.1-10.95c-.18-.22-.36-.44-.54-.66-.95.63-2.36,1.05-2.76,1.92-1.1,2.43-1.82,5.04-2.58,7.62-.18.62.03,1.36.06,2.05Zm8.17-28.3c4.54-1.7,6.3-6.87,3.91-10.9-1.31,3.64-2.53,7.04-3.91,10.9Zm-18.26,88.36c.02-.22.04-.45.06-.67-5.01-.25-10.13-2-14.87,1.57,4.94-.3,9.87-.6,14.81-.9Zm-74.56-42.18c-1.24,4.1.24,10.67,2.81,13.26-.51-4.48-.88-8.73-2.81-13.26Zm86.72-.7c.78.3,1.46.77,1.65.62,3.07-2.37,6.07-4.83,9.1-7.27-.07-.21-.14-.43-.21-.64-.84.2-1.87.16-2.5.65-2.64,2.04-5.16,4.24-8.04,6.64Zm-38.18,32.43c-1.3.54-2.63.77-2.67,1.15-.38,3.24-.52,6.5-.74,9.76.3.03.59.06.89.09.78-3.42,1.57-6.84,2.52-11Zm61.07-.03c4.1-.47,7.4-4.26,5.77-8.14-1.89,2.67-3.8,5.36-5.77,8.14Zm-51.77-4.58c-.07-.19-.15-.37-.22-.56-2.22.11-4.44.16-6.64.38-.38.04-.69.77-1.03,1.19,1.04.58,2.26,1.84,3.08,1.62,1.71-.46,3.22-1.7,4.81-2.62Zm70.55-49.88c.03.22.06.43.09.65,4.55.65,8.48-1.08,12.21-3.57-4.1.97-8.2,1.95-12.31,2.92Zm-77.01,42.18c-.21,1.01-.39,1.89-.67,3.3,2.93-.42,5.47-.78,8.02-1.15-.02-.18-.05-.37-.07-.55-2.31-.51-4.62-1.02-7.28-1.6Zm45.62-81.11l-.35.59c.68.5,1.36,1,2.03,1.51.19-.09.39-.19.58-.28v6.35c.68-1.2.74-2.48,1.3-3.49,1.44-2.58,1.13-3.56-1.73-4.28-.61-.15-1.22-.27-1.84-.4Zm-44.95,109.11c0-.21-.01-.41-.02-.62-1.93-.04-3.9-.28-5.77.04-.37.06-.37,2.28-.6,3.94,2.48-1.3,4.43-2.33,6.39-3.36Zm-5.21-21.58c1.75.46,2.58.28,2.76-1.26.17-1.43.55-2.84.76-4.27.08-.54-.08-1.12-.13-1.68-.29-.05-.57-.1-.86-.15-.82,2.38-1.63,4.75-2.53,7.36Zm20.62-6.47c.08.32.15.63.23.95,3.81-.14,7.64-.25,10.9-2.92-3.71.66-7.42,1.31-11.13,1.97Zm-22.94-16.72c.47,2.79.91,5.42,1.35,8.06.15,0,.29,0,.44-.01.29-2.64.57-5.29.87-8.04h-2.66Zm-3.59,28.46c0-1.33-.02-2.26,0-3.2.02-1-.06-2.18-1.37-1.85-.75.19-1.7,1.2-1.81,1.95-.28,1.94,1.31,2.44,3.18,3.1Zm48.07-64.69c-.41,1.28-.78,2.43-1.15,3.62,3.08.29,3.77-.24,4.19-3.27-.91-.11-1.83-.21-3.03-.35Zm12.34,63.96c-1.8,2.12-3.43,4.04-5.28,6.22,6.35-2.45,6.32-3.13,5.28-6.22Zm7.35-3.11c1.96-2.74,2.68-5.35,2.05-7.38-2.55,2.1-2.82,3.05-2.05,7.38Zm7.18-45.39c2.09-.54,3.72-5.14,2.58-8.29-.85,2.74-1.71,5.48-2.58,8.29Zm-28.44,25.09c-.95.07-2.19-.08-2.32.23-.37.88-.64,2.12-.26,2.9.36.76,1.57,1.11,2.58,1.75v-4.87Zm-8.53-7.4c4.79,1.28,6.75.23,5.72-2.93-1.85.95-3.64,1.87-5.72,2.93Zm-7.5,23.05c-2.84.19-6.32-1.78-8.81,2.07,3.23-.76,6.02-1.42,8.81-2.07Zm13.47-17.12c.74-1.13,1.42-2.15,2.09-3.18-.12-.18-.25-.37-.37-.55-1.06.98-2.74-1.5-3.53,1-.47,1.49.11,2.35,1.82,2.73Zm-8.33,39.21c.08.38.15.77.23,1.15,1.08-.16,2.49.05,3.16-.55,1.15-1.04,2.29-1.27,3.69-1.27.63,0,1.26-.31,1.89-.48-.06-.26-.13-.52-.19-.78-2.92.64-5.85,1.29-8.77,1.93Zm45.94-104.39c-.97,3.3-2.63,6.47-1.38,10,.57-2.75.99-5.52,1.37-8.3.08-.56.01-1.14.01-1.71Zm-22.24,97.87c-.05-.22-.09-.44-.14-.65-3.11-.12-6.4,1.01-7.53,3.04,2.84-.89,5.25-1.64,7.67-2.39Zm-3.56-31.83c.1-.2.19-.41.29-.61-1.22-.61-2.39-1.52-3.67-1.7-.59-.08-1.38,1.27-2.41,2.31h5.8Zm2.05-38.6c-5.1-1.08-5.7-.89-6.06,1.6,2.08-.55,4.07-1.07,6.06-1.6Zm-12.91,38.05c2.36.78,2.74.46,3.86-3.08-2.01-.5-2.1-.42-3.86,3.08Zm-75.13,31.96c.3-.02.59-.04.89-.06-.26-3.74-.53-7.47-.79-11.21-.03.02-.06.03-.09.05v11.22Zm35.77-20.07c-.15,2.36-.29,4.58-.42,6.79,2.42-6.51,3.18-6.22.42-6.79Zm-2.99,13.55c.34,0,.68,0,1.03,0,.06-1.35.26-2.72.1-4.05-.04-.33-1.23-.52-2.48-1,.57,2.11.96,3.58,1.36,5.05Zm59.19-66.91c.17,0,.34,0,.51-.01v-9.17c-.17,0-.34.01-.51.02v9.16Zm-56.84,66.6c.23.24.47.49.7.73.72-.5,1.82-.86,2.08-1.54.59-1.52-.55-2.14-2.12-2.48-.23,1.13-.44,2.21-.66,3.29Zm-3.92,7.4c1.76-2.96,1.81-4.82,0-6.23v6.23Zm15.35,7.64c-.01-.25-.03-.5-.04-.75h-6.92c0,.25,0,.5,0,.75h6.97Zm-13.47-8.18c-1.54,2.88-2.49,6.05-1.8,9.52.6-3.17,1.2-6.35,1.8-9.52Zm-38.65,31.48c.19.09.38.18.57.27,1.66-3.45,3.32-6.91,4.98-10.36l-.66-.31c-1.63,3.47-3.25,6.94-4.88,10.41Zm36.94-6.21c.34.07.67.13,1.01.2.53-2.51,1.05-5.02,1.58-7.53-.3-.06-.59-.12-.89-.19-.56,2.51-1.13,5.01-1.69,7.52Zm59.07-108.73c.13-.04.25-.09.38-.13v-6.64c-.24.01-.48.02-.72.04.12,2.24.23,4.49.35,6.73Zm2.17,13.25c-.14.01-.29.02-.43.04v7.99c.14,0,.29-.01.43-.02v-8.01Zm10.72,21.34c-.03.31-.05.63-.08.94,2.05.12,4.09.25,6.14.37.02-.26.03-.52.05-.78-2.04-.18-4.07-.36-6.11-.54Zm-100.73,53.6v5.29c.86-1.63,1.44-2.73,2.07-3.91-.64-.43-1.15-.77-2.07-1.39Zm75.36-46.8c1.64-1.26,2.96-2.28,4.64-3.57-3.6.47-4.64,1.25-4.64,3.57Zm-65.3,38.17c-.2-.1-.41-.21-.61-.31-1.45,2.39-2.9,4.79-4.35,7.18.22.13.44.25.66.38l4.31-7.25Zm16.73,17.43c-.27-.05-.55-.11-.82-.16l-1.18,5.85c.3.06.6.12.9.18.37-1.95.73-3.91,1.1-5.86Zm65.39-12.43c-2.5-.86-4.05-.36-5.2,1.88,1.88-.68,3.45-1.25,5.2-1.88Zm-4.56-72.75c0-.13,0-.26,0-.39h-6.67v.39h6.68Zm-50.95,49.21c-.23-.32-.47-.64-.7-.95-.82.48-1.64.96-2.46,1.44.46.48.93.97,1.39,1.45.59-.64,1.19-1.29,1.78-1.93Zm14.69,1.5c-.02-.17-.04-.33-.06-.5-2.4.13-4.81.27-7.21.4.02.25.04.5.05.74,2.4-.22,4.81-.43,7.21-.65Zm-30.35,5.64c2.12,1.9,3.85,2.36,5.54,1.51-2.03-.55-3.78-1.03-5.54-1.51Zm36.88,17.39c.02.25.03.5.05.75,1.77-.08,3.54-.16,5.31-.24-.02-.28-.04-.55-.06-.83-1.77.11-3.54.21-5.3.32Zm24.51-41.35c-1.16,1.03-2.32,2.07-3.74,3.33,2.06.1,2.7-.48,3.74-3.33Z"/><path d="m106.89,21.02c-.2,1.86-.39,3.72-.59,5.58.17.03.35.06.52.09.77-2.67,1.55-5.34,2.32-8.01l.5-.03c.04.74.26,1.53.09,2.22-.59,2.4-1.09,4.86-2.02,7.14-2.47,6-3.17,12.3-3,18.63.09,3.24,1.41,6.44,2.24,9.89,7.58-3.79,14.07-8.29,19.26-14.19,2.39-2.71,3.47-6.66,4.83-10.17,1.09-2.82,1.71-5.83,2.89-8.82v6.7c.34.02.67.03,1.01.05.3-3.3.59-6.61.9-10.05.28-.02.85-.08,1.42-.11,1.31-.08,1.83-.67,1.9-2.08.12-2.37.27-4.81.94-7.06.33-1.1,1.69-2.26,2.85-2.68,5.23-1.92,10.6-3.06,16.26-2.66,5.44.38,9.76,4.82,10.27,10.35.98,10.68-4.45,18.35-11.5,25.29-1.8,1.77-3.88,3.25-5.91,4.92,5.45,6.52,5.71,14.61,6.72,22.48-.17.12-.33.23-.5.35-1.17-1.68-2.34-3.36-3.64-5.22-.18,1.04-.32,1.84-.45,2.65-.22.08-.43.15-.65.23-.69-1.27-1.69-2.46-2.03-3.82-1.31-5.17-4.48-9.23-7.71-13.78-.28.9-.5,1.45-.63,2.03-1.19,5.03-2.35,10.07-3.58,15.09-.21.86-.27,2.41-1.93,1.04-.48,2.56-.92,4.94-1.36,7.33-.2,0-.39-.01-.59-.02-.04-.78-.2-1.58-.11-2.34.17-1.37.52-2.72.73-4.09.97-6.33,2.06-12.65,2.77-19.01.16-1.47-.99-3.09-1.57-4.73.65-.75,1.96-1.74,2.54-3.05.68-1.54.07-2.99-2.04-3.29.13-.4.15-.83.3-.88,2.33-.75,2.05-2.65,1.93-4.41-.29-3.98-.64-7.96-.97-11.92-3,.01-2.79-.04-1.97,2.52.48,1.53.48,3.39.13,4.97-2.49,11.33-6.85,21.86-14.86,30.42-2.4,2.56-5.14,4.83-7.43,7.55-2.08,2.47-5.01,3.53-8.11,3.85-4.05.42-6.98-1.72-8.66-5.1-1.54-3.09-2.79-6.44-3.45-9.82-.76-3.83-.78-7.81-1.03-11.74-.37-5.93,2.2-10.69,6.54-14.38,2.12-1.81,3.87-3.63,4.79-6.25.23-.65.68-1.23,1.04-1.84.21.06.42.13.63.19Zm39.06,17.3c2.53.91,4.94,1.55,7.12,2.65,1.31.67,2.03.52,3.03-.36,4.22-3.75,7.46-8.26,9.46-13.48,1.7-4.46,1.54-9.08-1.38-13.13-1.39-1.93-3.13-3.65-4.87-5.3-3.02-2.86-4.45-2.4-7.52-.05-4.33,3.32-6.35,8.31-7.12,13.8.88-1.2,1.76-2.39,2.64-3.59l.75.27c-.57,5.19-1.15,10.38-1.77,15.99,2.59-1.24,4.79-2.29,7-3.35-.88,1.07-1.98,1.85-3.19,2.43-1.88.9-4.12,1.37-4.15,4.12Zm-48.85,22.72l.87-.02c-.89-11.29,3.05-21.82,5.04-33.21-4.94,3.7-8.15,7.93-8.28,13.7-.1,4.41.41,8.85.88,13.26.23,2.12.98,4.19,1.49,6.28Zm44.45-31.72c.46-1.65.93-3.21,1.32-4.79,1.73-7.03,3.75-13.88,10.45-18.21-3.21.58-6.3,1.45-9.42,2.2-2.01.48-3.55,1.77-3.55,3.64,0,5.61.4,11.23.65,16.84,0,.04.12.07.56.31Zm-15.83,15.1c-1.35,1.1-2.63,2.3-4.05,3.3-3.99,2.79-8.05,5.47-12.04,8.26-.62.44-1.5,1.28-1.42,1.81.33,2.31,3.98,3.93,5.85,2.55,2.22-1.64,4.22-3.57,6.28-5.4,3.13-2.78,4.23-6.65,5.37-10.52Zm-11.33,18.45l-.3-.93c-.92.24-1.86.43-2.76.74-3.91,1.32-6.28.32-7.87-3.24-.22-.49-.86-.95-1.4-1.1-1.68-.47-2.46-1.57-2.37-3.21.13-2.24.16-4.54.7-6.7,1.2-4.87,2.81-9.64,4-14.52.5-2.05.4-4.24.57-6.37-.26-.02-.51-.04-.77-.06-.28.96-.62,1.91-.84,2.88-1.12,4.9-2.49,9.76-3.23,14.72-.79,5.23-1.07,10.56-1.37,15.85-.15,2.64,1.11,4.08,3.4,4.25,1.88.14,3.84.27,5.66-.1,2.25-.46,4.39-1.44,6.58-2.19Zm43.17,2.84c.04-.47.18-.96.1-1.4-.68-3.49-1.16-7.04-2.21-10.42-.71-2.29-2.19-4.36-3.42-6.48-.59-1.02-1.61-1.09-2.36-.27-.46.5-.77,1.42-.67,2.08.21,1.42.83,2.78,1.1,4.2.95,4.99,4.7,8.29,7.47,12.29Zm8.82-37.79c3.21-4.68,3.19-13.59.16-17.95-1.59-2.28-5.62-3.95-8.47-3.28,7.2,5.41,11.36,11.94,8.32,21.23Zm-66.69,37.55c2.03,2.71,4.35,4.11,7.42,3.71,4.41-.58,7.75-2.82,9.74-7.06-5.08,3.66-10.63,4.75-17.17,3.36Zm3.62-8.01v-17.35c-1.33,5.33-3.3,10.1-2.85,15.36.12,1.36.84,2.11,2.85,1.99Zm29.76-22.24c-3.95,4.49-6.57,9.41-8.34,15.42,4.44-4.59,7.75-9.16,8.34-15.42Zm14.1-14.32c-3.85,3.75-6.58,14.38-4.28,17.61.49-1.47.91-2.63,1.25-3.82,1.19-4.16.19-8.85,3.01-12.64.14-.18.02-.55.02-1.16Zm-1.75,18.18c.25,3.23,2.12,3.89,3.99,4.46,1.6.49,3.1.4,4.41-1.73-2.78-.91-5.32-1.73-8.39-2.74Zm-34.64,22.64c-.84-.75-1.89-1.31-2.38-2.19-1.08-1.93-2.39-2.01-4.07-.98.23,3.48,2.68,4.73,6.44,3.17Zm-6.34-11.17c-.13.02-.25.05-.38.07v6.89c.93-.23,1.64-.41,2.4-.6-.73-2.28-1.38-4.32-2.03-6.37Zm25.7-13.36c1.89-2.35,3.93-4.66,2.85-8.34-1.02,2.97-1.93,5.66-2.85,8.34Zm-14.88,23.42c.12.17.24.33.35.5,2.49-.71,3.95-2.52,4.76-5.04l-5.12,4.54Zm25.22-7.34c.21,0,.43,0,.64,0,.23-1.69.47-3.38.7-5.07-.37-.03-.73-.06-1.1-.09-.08,1.72-.16,3.44-.24,5.16Zm-20.17,5.8c.18.14.35.27.53.41,1.45-1.64,2.9-3.28,4.35-4.91l-.45-.39-4.44,4.89Z"/><path d="m100.08,15.58c1.83.16,4.24-2.17,6.47.76-3.03.54-5.94,1.01-8.83,1.58-3.5.68-6.99,1.37-10.45,2.2-.53.13-1.21.98-1.28,1.56-.74,6.36-1.36,12.73-2.03,19.1-.48,4.56-.97,9.12-1.49,13.67-.1.84-.37,1.67-.56,2.5-.25-.05-.5-.09-.75-.14.61-6.71,1.21-13.42,1.82-20.13-.18-.03-.35-.06-.53-.08-1.67,7.14-3.34,14.28-5,21.42-.28-.04-.56-.07-.84-.11,0-.7-.09-1.42.01-2.11,1.29-8.86,2.62-17.71,3.91-26.57.34-2.31-1.32-6.37-3.15-6.95-2.11-.67-4.44-1.28-6.6-1.07-5.44.54-4.46-.37-4.55,4.8-.03,1.95,0,3.9,0,6.32,2.39-.36,4.47-.67,6.83-1.02-1.79,1.17-3.27,2.38-4.95,3.17-1.4.66-1.9,1.45-1.91,2.98-.06,6.33-.26,12.66-.42,19-.01.41-.12.82-.21,1.42-2.28-.4-2.09-2.43-2.85-3.74-.59-1.01-1.05-2.32-1.95-2.89-4.07-2.55-8.27-4.88-12.43-7.27-.3-.17-.67-.19-1.23-.35-2.13,5.49-4.24,10.92-6.35,16.34-1.12-3.04-.82-5.77.53-8.47,1.33-2.66,2.45-5.43,3.72-8.27-.94-.39-1.72-.72-3.11-1.31,3.45-.75,4.51-2.91,5.68-5.23,3.11-6.17,6.48-12.2,9.75-18.29.98-1.83,1.97-3.65,2.96-5.48-.19-.13-.39-.26-.58-.39-1.79,2.22-3.65,4.39-5.37,6.68-1.72,2.3-3.29,4.71-5.15,6.9,3.02-5.78,6.75-11.01,11.57-15.38l.82.44c-.53,1.48-1.06,2.95-1.6,4.43.1.07.21.14.31.2.97-1.11,1.94-2.23,2.91-3.35.19.06.38.13.57.19v7.22c3.13-.62,5.85-1.16,8.57-1.7.05-.2.1-.41.14-.61l-3.74-1.52c.02-.21.04-.42.07-.63,4.64-.58,9.27-1.18,13.91-1.72,2.09-.24,4.21-.58,6.3-.48,3.1.15,6.19.59,9.26,1.03.57.08,1.05.77,1.78,1.33Zm-38.34,23.89c-4.65,1.2-8.94,2.31-13.74,3.56,4.87,2.78,9.36,5.35,13.74,7.85v-11.41Zm-.79-16.72c-2.21-.38-3.28.29-4.01,1.81-.88,1.83-1.95,3.57-2.86,5.39-1.01,2.03-1.94,4.1-3.06,6.48,3.35-.98,6.2-1.78,9.02-2.66.37-.12.87-.65.88-1,.07-3.33.04-6.65.04-10.03Zm20.6-4.97c2.95-.22,5.62-.28,8.25-.64,2.6-.36,5.16-1.02,7.74-1.55-.04-.21-.08-.43-.12-.64-5.46-2.36-10.91-.19-16.62-.34.3,1.29.5,2.11.75,3.18Zm-18.33,31.91c1.65-2.23,2.17-9.77.85-13.04-2.15,4.19-.73,8.68-.85,13.04Zm-.17-35.14c-.2-.09-.4-.17-.6-.26-1.13,2.14-2.27,4.28-3.58,6.75,1.65-.55,2.81-.93,4.18-1.39v-5.1Zm8.87,1.25c1.3,2.12,3.18,2.15,4.93,1.75.69-.16,1.15-1.38,1.71-2.11-.12-.18-.23-.36-.35-.53-2.04.29-4.08.58-6.29.9Zm-7.28,15.47v-9.12c-.21.01-.42.02-.64.03-1.31,2.93-.06,5.75.64,9.09Zm-13.54,6.13c.11.32.21.64.32.96l9.45-3.2c-.09-.27-.18-.54-.27-.8-3.17,1.02-6.33,2.03-9.5,3.05Zm32.14-7.62c.5-2.85.99-5.69,1.49-8.54-.33-.05-.67-.11-1-.16-.98,2.77-.75,5.73-.49,8.7Zm-21.85,7.1c-.1-.31-.19-.63-.29-.94-2.64.92-5.29,1.83-7.93,2.75.06.19.12.38.17.57,2.68-.79,5.37-1.59,8.05-2.38Zm.45-4.65c.14,0,.28,0,.42,0v-7.95c-.14,0-.28,0-.42,0v7.95Zm16.78-10.27c.8,1.19,1.43,2.12,2.31,3.42v-3.86c-.76.14-1.31.25-2.31.44Z"/><path d="m26.17,139.14c2.22-.78,4.44-1.56,6.35-2.23-1.78-1.24-3.89-2.41-5.61-4-2.76-2.55-2.72-5.56-.06-8.2,1.18-1.16,2.56-2.17,4-2.99,1.18-.67,1.64-1.43,1.62-2.76-.07-3.79-.13-7.58,0-11.37.19-5.45.34-10.93.95-16.34.33-2.98-.19-5.12-3.67-6.73,3.24-1.14,5.8-1.97,8.3-2.96,1.74-.69,3.4-1.61,5.09-2.42,3.99-1.91,7.85-4.2,12.01-5.64,5.64-1.96,10.8-.78,14.74,4.08,4.99,6.15,9.43,12.77,11.78,20.28,2.03,6.5,1.63,13.31-3.65,18.57-3.28,3.26-6.86,6.3-10.65,8.95-6.2,4.34-12.58,8.36-19.97,10.62-3.28,1.01-6.13,3.44-9.41,4.45-2.76.85-5.87.7-8.83.73-1.02.01-2.04-.76-3.06-1.17.02-.29.05-.59.07-.88Zm8.98-2.81c.93-.25,1.75-.45,2.57-.7,2.92-.9,5.78-2.14,8.77-2.67,4.51-.8,7.91-3.2,10.89-6.41,4.71-5.07,9.49-10.08,13.97-15.35,2.28-2.68,4.41-5.66,5.84-8.84,3.96-8.78-2.15-17.6-11.69-17.17-2.76.12-5.52.44-8.26.81-4.54.61-9.05,1.48-13.61,1.92-1.79.18-2.38.64-2.38,2.41.02,10.55-1.09,20.97-3.35,31.29-1.04,4.75-1.81,9.57-2.77,14.71Zm6.78-49.05c9.72-.15,19.17-4.1,29.38-2.34-.43-.48-.58-.73-.8-.87-8.6-5.82-17.93-5.56-27.48-3.2-.45.11-1.01.87-1.05,1.36-.14,1.57-.05,3.15-.05,5.05Zm37.38,12.4c-1.36,2.69-2.42,6.28-4.64,8.89-6.04,7.09-12.57,13.76-18.9,20.6-.31.33-.59.67-.89,1.01l.36.58c2.75-1.42,5.76-2.48,8.17-4.33,3.34-2.55,6.4-5.53,9.26-8.62,4.86-5.25,7.32-11.48,6.64-18.13Zm-5.17-13.79c.14-.19.27-.38.41-.57-1.58-2.22-3.07-4.5-4.75-6.64-1.92-2.45-4.19-4.57-7.43-5.01-6.54-.88-11.94,2-17.2,5.46,10.56-1.59,20.54-.9,28.97,6.75Zm-40.89,33.94l.91.25c.33-.85.84-1.67.95-2.54.83-7.01,1.47-14.04,2.42-21.03.44-3.25-1.23-5.42-2.96-8.29-1.9,10.89-1.23,21.27-1.31,31.61Zm-.87,2.3c-3.65,1.04-6.84,4.29-6.67,6.6.21,2.93,3.27,5.96,6.67,6.56v-13.16Zm47.7-25.61c1.62,11.34-3.6,19.75-11.64,26.95,12.32-7.54,15.83-16.24,11.64-26.95Zm-52.42,43.09c3.04,2.23,12.98.44,15.51-2.48-5.26.38-10.57-.23-15.51,2.48Zm12.32-57.32c-.1-.12-.2-.24-.29-.36-1.22.4-2.43.85-3.67,1.18-1.83.49-2.12,1.78-1.46,3.2.96,2.06,2.2,3.98,3.33,5.97.2-.04.41-.08.61-.12-.05-1.76,1.2-3.36-.01-5.34-.39-.64.1-1.91.38-2.83.19-.62.73-1.14,1.11-1.7Zm8.48,50.8c-3.11.96-6.22,1.92-9.34,2.89.06.19.12.38.18.57,3.4-.09,6.67-.55,9.15-3.45Zm-12.26-14.81c.37.03.74.06,1.12.09l1.64-12.73c-.22-.03-.44-.06-.67-.09-.7,4.24-1.39,8.48-2.09,12.72Zm3.61-15.93c.1,0,.21,0,.31,0v-14.02c-.1,0-.21-.01-.31-.02v14.03Zm17.07,29.06c-.11-.25-.22-.51-.33-.76-2.14.89-4.28,1.77-6.41,2.66.09.22.18.44.27.66,2.16-.85,4.31-1.71,6.47-2.56Z"/><path d="m28.48,47.26c.34-.92.81-1.81.99-2.76,1.74-9.27,4.19-18.27,8.6-26.72,1.38-2.64,1.61-5.86,2.4-8.81.18-.68.48-1.33.72-1.99.26.08.51.15.77.23-1.05,4.68-2.11,9.37-3.16,14.05.21.05.41.11.62.16,1.06-2.19,2.12-4.38,3.18-6.57.25.1.5.21.75.31-.52,1.67-1,3.35-1.57,5-2.79,8.21-5.98,16.3-8.2,24.66-.8,3.01-2.42,4.91-4.09,7.1-.46.6-.64,1.42-.9,2.16-.24.71-.41,1.45-.61,2.18-.28.05-.55.1-.83.15-5.6-12.93-11.19-25.85-16.79-38.78-.21.02-.43.04-.64.06-.23,2.34-.83,4.7-.63,7,.72,8.35.17,16.58-1.66,24.73-.76,3.4-1.66,6.77-2.58,10.14-.18.66-.74,1.21-1.12,1.81-.23-.08-.46-.16-.69-.24.48-4,.96-7.99,1.51-12.55-1.01,1.64-1.71,2.78-2.33,3.78-3.34-1.39-2.03-3.86-1.61-5.96,2.3-11.52,2.51-23.15,2.23-34.83-.02-.68,0-1.37.31-2.04.82,13.15.75,26.25-2.39,39.2.29.05.57.09.86.14.83-3.75,1.89-7.47,2.45-11.26,1.24-8.43,2.2-16.91,3.37-25.35.21-1.5.9-2.93,1.36-4.39.34.02.68.05,1.01.07.13,2.33-.08,4.75.48,6.98.6,2.34,1.93,4.5,3.34,6.59-.58-2.66-1.15-5.33-1.73-7.99.26-.08.51-.15.77-.23,1.35,2.76,2.85,5.45,4.03,8.28,3.41,8.2,6.37,16.61,11.28,24.11.3.46.37,1.08.55,1.62-.97-.56-2.11-.95-2.88-1.72-1.67-1.66-3.16-3.51-4.72-5.29-.12.07-.24.13-.35.2,2.29,4.48,4.58,8.96,7.14,13.96.29-2.77.53-4.98.76-7.2Zm-14.15-28.77c1.55,9.82,4.01,19.18,11.5,26.11-3.82-8.66-7.66-17.38-11.5-26.11ZM4.16,57.61c2.71-5.83,5.4-23.33,4.04-26.75-1.35,8.98-2.69,17.86-4.04,26.75Zm29.52-17.95l.61.18,5.71-16.52c-.25-.09-.5-.17-.75-.26-1.86,5.53-3.72,11.06-5.58,16.6Zm2.31-14.33c-.25-.05-.49-.1-.74-.16-1.33,4.62-2.65,9.23-3.98,13.85.29.08.57.16.86.24,1.29-4.64,2.58-9.29,3.86-13.93Zm-27.88-5.44l-.8-.1c-.53,4.1-1.05,8.2-1.58,12.3.21.03.41.05.62.08.59-4.09,1.18-8.19,1.76-12.28Z"/></g></svg>